<svg data-name="Layer 1" xmlns="http://www.w3.org/2000/svg" viewBox="0 0 773 1000"><g data-name="Layer 3"><g data-name="Rectangle 1741"><path fill="#fff" d="M91.4 182.8h681v708.5h-681z"/><path fill="none" stroke="#707070" d="M91.89 183.3h680v707.5h-680z"/></g><g data-name="Repeat Grid 3"><g data-name="Ellipse 2555"><circle cx="116.66" cy="208.3" r="25" fill="#fff"/><circle cx="116.66" cy="208.3" r="24.5" fill="none" stroke="#707070"/></g><g data-name="Ellipse 2555-2"><circle cx="186.66" cy="208.3" r="25" fill="#fff"/><circle cx="186.66" cy="208.3" r="24.5" fill="none" stroke="#707070"/></g><g data-name="Ellipse 2555-3"><circle cx="256.66" cy="208.3" r="25" fill="#fff"/><circle cx="256.66" cy="208.3" r="24.5" fill="none" stroke="#707070"/></g><g data-name="Ellipse 2555-4"><circle cx="326.66" cy="208.3" r="25" fill="#fff"/><circle cx="326.66" cy="208.3" r="24.5" fill="none" stroke="#707070"/></g><g data-name="Ellipse 2555-5"><circle cx="396.66" cy="208.3" r="25" fill="#fff"/><circle cx="396.66" cy="208.3" r="24.5" fill="none" stroke="#707070"/></g><g data-name="Ellipse 2555-6"><circle cx="466.66" cy="208.3" r="25" fill="#fff"/><circle cx="466.66" cy="208.3" r="24.5" fill="none" stroke="#707070"/></g><g data-name="Ellipse 2555-7"><circle cx="536.66" cy="208.3" r="25" fill="#fff"/><circle cx="536.66" cy="208.3" r="24.5" fill="none" stroke="#707070"/></g><g data-name="Ellipse 2555-8"><circle cx="606.66" cy="208.3" r="25" fill="#fff"/><circle cx="606.66" cy="208.3" r="24.5" fill="none" stroke="#707070"/></g><g data-name="Ellipse 2555-9"><circle cx="676.66" cy="208.3" r="25" fill="#fff"/><circle cx="676.66" cy="208.3" r="24.5" fill="none" stroke="#707070"/></g><g data-name="Ellipse 2555-10"><circle cx="746.66" cy="208.3" r="25" fill="#fff"/><circle cx="746.66" cy="208.3" r="24.5" fill="none" stroke="#707070"/></g><g data-name="Ellipse 2555-11"><circle cx="116.66" cy="281.3" r="25" fill="#fff"/><circle cx="116.66" cy="281.3" r="24.5" fill="none" stroke="#707070"/></g><g data-name="Ellipse 2555-12"><circle cx="186.66" cy="281.3" r="25" fill="#fff"/><circle cx="186.66" cy="281.3" r="24.5" fill="none" stroke="#707070"/></g><g data-name="Ellipse 2555-13"><circle cx="256.66" cy="281.3" r="25" fill="#fff"/><circle cx="256.66" cy="281.3" r="24.5" fill="none" stroke="#707070"/></g><g data-name="Ellipse 2555-14"><circle cx="326.66" cy="281.3" r="25" fill="#fff"/><circle cx="326.66" cy="281.3" r="24.5" fill="none" stroke="#707070"/></g><g data-name="Ellipse 2555-15"><circle cx="396.66" cy="281.3" r="25" fill="#fff"/><circle cx="396.66" cy="281.3" r="24.5" fill="none" stroke="#707070"/></g><g data-name="Ellipse 2555-16"><circle cx="466.66" cy="281.3" r="25" fill="#fff"/><circle cx="466.66" cy="281.3" r="24.5" fill="none" stroke="#707070"/></g><g data-name="Ellipse 2555-17"><circle cx="536.66" cy="281.3" r="25" fill="#fff"/><circle cx="536.66" cy="281.3" r="24.5" fill="none" stroke="#707070"/></g><g data-name="Ellipse 2555-18"><circle cx="606.66" cy="281.3" r="25" fill="#fff"/><circle cx="606.66" cy="281.3" r="24.5" fill="none" stroke="#707070"/></g><g data-name="Ellipse 2555-19"><circle cx="676.66" cy="281.3" r="25" fill="#fff"/><circle cx="676.66" cy="281.3" r="24.5" fill="none" stroke="#707070"/></g><g data-name="Ellipse 2555-20"><circle cx="746.66" cy="281.3" r="25" fill="#fff"/><circle cx="746.66" cy="281.3" r="24.5" fill="none" stroke="#707070"/></g><g data-name="Ellipse 2555-21"><circle cx="116.66" cy="354.3" r="25" fill="#fff"/><circle cx="116.66" cy="354.3" r="24.5" fill="none" stroke="#707070"/></g><g data-name="Ellipse 2555-22"><circle cx="186.66" cy="354.3" r="25" fill="#fff"/><circle cx="186.66" cy="354.3" r="24.5" fill="none" stroke="#707070"/></g><g data-name="Ellipse 2555-23"><circle cx="256.66" cy="354.3" r="25" fill="#fff"/><circle cx="256.66" cy="354.3" r="24.5" fill="none" stroke="#707070"/></g><g data-name="Ellipse 2555-24"><circle cx="326.66" cy="354.3" r="25" fill="#fff"/><circle cx="326.66" cy="354.3" r="24.5" fill="none" stroke="#707070"/></g><g data-name="Ellipse 2555-25"><circle cx="396.66" cy="354.3" r="25" fill="#fff"/><circle cx="396.66" cy="354.3" r="24.5" fill="none" stroke="#707070"/></g><g data-name="Ellipse 2555-26"><circle cx="466.66" cy="354.3" r="25" fill="#fff"/><circle cx="466.66" cy="354.3" r="24.5" fill="none" stroke="#707070"/></g><g data-name="Ellipse 2555-27"><circle cx="536.66" cy="354.3" r="25" fill="#fff"/><circle cx="536.66" cy="354.3" r="24.5" fill="none" stroke="#707070"/></g><g data-name="Ellipse 2555-28"><circle cx="606.66" cy="354.3" r="25" fill="#fff"/><circle cx="606.66" cy="354.3" r="24.5" fill="none" stroke="#707070"/></g><g data-name="Ellipse 2555-29"><circle cx="676.66" cy="354.3" r="25" fill="#fff"/><circle cx="676.66" cy="354.3" r="24.5" fill="none" stroke="#707070"/></g><g data-name="Ellipse 2555-30"><circle cx="746.66" cy="354.3" r="25" fill="#fff"/><circle cx="746.66" cy="354.3" r="24.5" fill="none" stroke="#707070"/></g><g data-name="Ellipse 2555-31"><circle cx="116.66" cy="427.3" r="25" fill="#fff"/><circle cx="116.66" cy="427.3" r="24.5" fill="none" stroke="#707070"/></g><g data-name="Ellipse 2555-32"><circle cx="186.66" cy="427.3" r="25" fill="#fff"/><circle cx="186.66" cy="427.3" r="24.5" fill="none" stroke="#707070"/></g><g data-name="Ellipse 2555-33"><circle cx="256.66" cy="427.3" r="25" fill="#fff"/><circle cx="256.66" cy="427.3" r="24.5" fill="none" stroke="#707070"/></g><g data-name="Ellipse 2555-34"><circle cx="326.66" cy="427.3" r="25" fill="#fff"/><circle cx="326.66" cy="427.3" r="24.5" fill="none" stroke="#707070"/></g><g data-name="Ellipse 2555-35"><circle cx="396.66" cy="427.3" r="25" fill="#fff"/><circle cx="396.66" cy="427.3" r="24.5" fill="none" stroke="#707070"/></g><g data-name="Ellipse 2555-36"><circle cx="466.66" cy="427.3" r="25" fill="#fff"/><circle cx="466.66" cy="427.3" r="24.5" fill="none" stroke="#707070"/></g><g data-name="Ellipse 2555-37"><circle cx="536.66" cy="427.3" r="25" fill="#fff"/><circle cx="536.66" cy="427.3" r="24.5" fill="none" stroke="#707070"/></g><g data-name="Ellipse 2555-38"><circle cx="606.66" cy="427.3" r="25" fill="#fff"/><circle cx="606.66" cy="427.3" r="24.5" fill="none" stroke="#707070"/></g><g data-name="Ellipse 2555-39"><circle cx="676.66" cy="427.3" r="25" fill="#fff"/><circle cx="676.66" cy="427.3" r="24.5" fill="none" stroke="#707070"/></g><g data-name="Ellipse 2555-40"><circle cx="746.66" cy="427.3" r="25" fill="#fff"/><circle cx="746.66" cy="427.3" r="24.5" fill="none" stroke="#707070"/></g><g data-name="Ellipse 2555-41"><circle cx="116.66" cy="500.3" r="25" fill="#fff"/><circle cx="116.66" cy="500.3" r="24.5" fill="none" stroke="#707070"/></g><g data-name="Ellipse 2555-42"><circle cx="186.66" cy="500.3" r="25" fill="#fff"/><circle cx="186.66" cy="500.3" r="24.5" fill="none" stroke="#707070"/></g><g data-name="Ellipse 2555-43"><circle cx="256.66" cy="500.3" r="25" fill="#fff"/><circle cx="256.66" cy="500.3" r="24.5" fill="none" stroke="#707070"/></g><g data-name="Ellipse 2555-44"><circle cx="326.66" cy="500.3" r="25" fill="#fff"/><circle cx="326.66" cy="500.3" r="24.5" fill="none" stroke="#707070"/></g><g data-name="Ellipse 2555-45"><circle cx="396.66" cy="500.3" r="25" fill="#fff"/><circle cx="396.66" cy="500.3" r="24.5" fill="none" stroke="#707070"/></g><g data-name="Ellipse 2555-46"><circle cx="466.66" cy="500.3" r="25" fill="#fff"/><circle cx="466.66" cy="500.3" r="24.5" fill="none" stroke="#707070"/></g><g data-name="Ellipse 2555-47"><circle cx="536.66" cy="500.3" r="25" fill="#fff"/><circle cx="536.66" cy="500.3" r="24.5" fill="none" stroke="#707070"/></g><g data-name="Ellipse 2555-48"><circle cx="606.66" cy="500.3" r="25" fill="#fff"/><circle cx="606.66" cy="500.3" r="24.5" fill="none" stroke="#707070"/></g><g data-name="Ellipse 2555-49"><circle cx="676.66" cy="500.3" r="25" fill="#fff"/><circle cx="676.66" cy="500.3" r="24.5" fill="none" stroke="#707070"/></g><g data-name="Ellipse 2555-50"><circle cx="746.66" cy="500.3" r="25" fill="#fff"/><circle cx="746.66" cy="500.3" r="24.5" fill="none" stroke="#707070"/></g><g data-name="Ellipse 2555-51"><circle cx="116.66" cy="573.3" r="25" fill="#fff"/><circle cx="116.66" cy="573.3" r="24.5" fill="none" stroke="#707070"/></g><g data-name="Ellipse 2555-52"><circle cx="186.66" cy="573.3" r="25" fill="#fff"/><circle cx="186.66" cy="573.3" r="24.5" fill="none" stroke="#707070"/></g><g data-name="Ellipse 2555-53"><circle cx="256.66" cy="573.3" r="25" fill="#fff"/><circle cx="256.66" cy="573.3" r="24.5" fill="none" stroke="#707070"/></g><g data-name="Ellipse 2555-54"><circle cx="326.66" cy="573.3" r="25" fill="#fff"/><circle cx="326.66" cy="573.3" r="24.5" fill="none" stroke="#707070"/></g><g data-name="Ellipse 2555-55"><circle cx="396.66" cy="573.3" r="25" fill="#fff"/><circle cx="396.66" cy="573.3" r="24.5" fill="none" stroke="#707070"/></g><g data-name="Ellipse 2555-56"><circle cx="466.66" cy="573.3" r="25" fill="#fff"/><circle cx="466.66" cy="573.3" r="24.5" fill="none" stroke="#707070"/></g><g data-name="Ellipse 2555-57"><circle cx="536.66" cy="573.3" r="25" fill="#fff"/><circle cx="536.66" cy="573.3" r="24.5" fill="none" stroke="#707070"/></g><g data-name="Ellipse 2555-58"><circle cx="606.66" cy="573.3" r="25" fill="#fff"/><circle cx="606.66" cy="573.3" r="24.5" fill="none" stroke="#707070"/></g><g data-name="Ellipse 2555-59"><circle cx="676.66" cy="573.3" r="25" fill="#fff"/><circle cx="676.66" cy="573.3" r="24.5" fill="none" stroke="#707070"/></g><g data-name="Ellipse 2555-60"><circle cx="746.66" cy="573.3" r="25" fill="#fff"/><circle cx="746.66" cy="573.3" r="24.5" fill="none" stroke="#707070"/></g><g data-name="Ellipse 2555-61"><circle cx="116.66" cy="646.3" r="25" fill="#fff"/><circle cx="116.66" cy="646.3" r="24.5" fill="none" stroke="#707070"/></g><g data-name="Ellipse 2555-62"><circle cx="186.66" cy="646.3" r="25" fill="#fff"/><circle cx="186.66" cy="646.3" r="24.5" fill="none" stroke="#707070"/></g><g data-name="Ellipse 2555-63"><circle cx="256.66" cy="646.3" r="25" fill="#fff"/><circle cx="256.66" cy="646.3" r="24.5" fill="none" stroke="#707070"/></g><g data-name="Ellipse 2555-64"><circle cx="326.66" cy="646.3" r="25" fill="#fff"/><circle cx="326.66" cy="646.3" r="24.5" fill="none" stroke="#707070"/></g><g data-name="Ellipse 2555-65"><circle cx="396.66" cy="646.3" r="25" fill="#fff"/><circle cx="396.66" cy="646.3" r="24.5" fill="none" stroke="#707070"/></g><g data-name="Ellipse 2555-66"><circle cx="466.66" cy="646.3" r="25" fill="#fff"/><circle cx="466.66" cy="646.3" r="24.5" fill="none" stroke="#707070"/></g><g data-name="Ellipse 2555-67"><circle cx="536.66" cy="646.3" r="25" fill="#fff"/><circle cx="536.66" cy="646.3" r="24.5" fill="none" stroke="#707070"/></g><g data-name="Ellipse 2555-68"><circle cx="606.66" cy="646.3" r="25" fill="#fff"/><circle cx="606.66" cy="646.3" r="24.5" fill="none" stroke="#707070"/></g><g data-name="Ellipse 2555-69"><circle cx="676.66" cy="646.3" r="25" fill="#fff"/><circle cx="676.66" cy="646.3" r="24.5" fill="none" stroke="#707070"/></g><g data-name="Ellipse 2555-70"><circle cx="746.66" cy="646.3" r="25" fill="#fff"/><circle cx="746.66" cy="646.3" r="24.5" fill="none" stroke="#707070"/></g><g data-name="Ellipse 2555-71"><circle cx="116.66" cy="719.3" r="25" fill="#fff"/><circle cx="116.66" cy="719.3" r="24.5" fill="none" stroke="#707070"/></g><g data-name="Ellipse 2555-72"><circle cx="186.66" cy="719.3" r="25" fill="#fff"/><circle cx="186.66" cy="719.3" r="24.5" fill="none" stroke="#707070"/></g><g data-name="Ellipse 2555-73"><circle cx="256.66" cy="719.3" r="25" fill="#fff"/><circle cx="256.66" cy="719.3" r="24.5" fill="none" stroke="#707070"/></g><g data-name="Ellipse 2555-74"><circle cx="326.66" cy="719.3" r="25" fill="#fff"/><circle cx="326.66" cy="719.3" r="24.5" fill="none" stroke="#707070"/></g><g data-name="Ellipse 2555-75"><circle cx="396.66" cy="719.3" r="25" fill="#fff"/><circle cx="396.66" cy="719.3" r="24.5" fill="none" stroke="#707070"/></g><g data-name="Ellipse 2555-76"><circle cx="466.66" cy="719.3" r="25" fill="#fff"/><circle cx="466.66" cy="719.3" r="24.5" fill="none" stroke="#707070"/></g><g data-name="Ellipse 2555-77"><circle cx="536.66" cy="719.3" r="25" fill="#fff"/><circle cx="536.66" cy="719.3" r="24.5" fill="none" stroke="#707070"/></g><g data-name="Ellipse 2555-78"><circle cx="606.66" cy="719.3" r="25" fill="#fff"/><circle cx="606.66" cy="719.3" r="24.5" fill="none" stroke="#707070"/></g><g data-name="Ellipse 2555-79"><circle cx="676.66" cy="719.3" r="25" fill="#fff"/><circle cx="676.66" cy="719.3" r="24.5" fill="none" stroke="#707070"/></g><g data-name="Ellipse 2555-80"><circle cx="746.66" cy="719.3" r="25" fill="#fff"/><circle cx="746.66" cy="719.3" r="24.5" fill="none" stroke="#707070"/></g><g data-name="Ellipse 2555-81"><circle cx="116.66" cy="792.3" r="25" fill="#fff"/><circle cx="116.66" cy="792.3" r="24.5" fill="none" stroke="#707070"/></g><g data-name="Ellipse 2555-82"><circle cx="186.66" cy="792.3" r="25" fill="#fff"/><circle cx="186.66" cy="792.3" r="24.5" fill="none" stroke="#707070"/></g><g data-name="Ellipse 2555-83"><circle cx="256.66" cy="792.3" r="25" fill="#fff"/><circle cx="256.66" cy="792.3" r="24.5" fill="none" stroke="#707070"/></g><g data-name="Ellipse 2555-84"><circle cx="326.66" cy="792.3" r="25" fill="#fff"/><circle cx="326.66" cy="792.3" r="24.5" fill="none" stroke="#707070"/></g><g data-name="Ellipse 2555-85"><circle cx="396.66" cy="792.3" r="25" fill="#fff"/><circle cx="396.66" cy="792.3" r="24.5" fill="none" stroke="#707070"/></g><g data-name="Ellipse 2555-86"><circle cx="466.66" cy="792.3" r="25" fill="#fff"/><circle cx="466.66" cy="792.3" r="24.5" fill="none" stroke="#707070"/></g><g data-name="Ellipse 2555-87"><circle cx="536.66" cy="792.3" r="25" fill="#fff"/><circle cx="536.66" cy="792.3" r="24.5" fill="none" stroke="#707070"/></g><g data-name="Ellipse 2555-88"><circle cx="606.66" cy="792.3" r="25" fill="#fff"/><circle cx="606.66" cy="792.3" r="24.5" fill="none" stroke="#707070"/></g><g data-name="Ellipse 2555-89"><circle cx="676.66" cy="792.3" r="25" fill="#fff"/><circle cx="676.66" cy="792.3" r="24.5" fill="none" stroke="#707070"/></g><g data-name="Ellipse 2555-90"><circle cx="746.66" cy="792.3" r="25" fill="#fff"/><circle cx="746.66" cy="792.3" r="24.5" fill="none" stroke="#707070"/></g><g data-name="Ellipse 2555-91"><circle cx="116.66" cy="865.3" r="25" fill="#fff"/><circle cx="116.66" cy="865.3" r="24.5" fill="none" stroke="#707070"/></g><g data-name="Ellipse 2555-92"><circle cx="186.66" cy="865.3" r="25" fill="#fff"/><circle cx="186.66" cy="865.3" r="24.5" fill="none" stroke="#707070"/></g><g data-name="Ellipse 2555-93"><circle cx="256.66" cy="865.3" r="25" fill="#fff"/><circle cx="256.66" cy="865.3" r="24.5" fill="none" stroke="#707070"/></g><g data-name="Ellipse 2555-94"><circle cx="326.66" cy="865.3" r="25" fill="#fff"/><circle cx="326.66" cy="865.3" r="24.5" fill="none" stroke="#707070"/></g><g data-name="Ellipse 2555-95"><circle cx="396.66" cy="865.3" r="25" fill="#fff"/><circle cx="396.66" cy="865.3" r="24.5" fill="none" stroke="#707070"/></g><g data-name="Ellipse 2555-96"><circle cx="466.66" cy="865.3" r="25" fill="#fff"/><circle cx="466.66" cy="865.3" r="24.5" fill="none" stroke="#707070"/></g><g data-name="Ellipse 2555-97"><circle cx="536.66" cy="865.3" r="25" fill="#fff"/><circle cx="536.66" cy="865.3" r="24.5" fill="none" stroke="#707070"/></g><g data-name="Ellipse 2555-98"><circle cx="606.66" cy="865.3" r="25" fill="#fff"/><circle cx="606.66" cy="865.3" r="24.5" fill="none" stroke="#707070"/></g><g data-name="Ellipse 2555-99"><circle cx="676.66" cy="865.3" r="25" fill="#fff"/><circle cx="676.66" cy="865.3" r="24.5" fill="none" stroke="#707070"/></g><g data-name="Ellipse 2555-100"><circle cx="746.66" cy="865.3" r="25" fill="#fff"/><circle cx="746.66" cy="865.3" r="24.5" fill="none" stroke="#707070"/></g></g><g data-name="Rectangle 1740"><path fill="#fff" d="M-.34 96.3h684v707h-684z"/><path fill="none" stroke="#707070" d="M.16 96.8h683v706H.16z"/></g><text transform="rotate(-.97 14134.958 -3343.068)" font-size="65" font-family="BelyDisplay-Regular, Bely Display" style="isolation:isolate"><tspan letter-spacing="-.04em">U</tspan><tspan x="48.3" y="0">w Nie</tspan><tspan x="228.68" y="0" letter-spacing="-.02em">u</tspan><tspan x="268.52" y="0" letter-spacing="-.06em">w</tspan><tspan x="324.1" y="0">e Start</tspan></text><path data-name="Path 2043" d="M55.2 240.89h550" fill="none" stroke="#707070"/><g data-name="Artwork 15"><g data-name="Group 160"><path data-name="Path 2066" d="M622.34 519.87L551 448.51l-73.1 73" fill="#fcbe08" stroke="#5f5655" stroke-width=".47"/><path data-name="Path 2067" d="M522.84 476.61L471.2 425l-70.7 70.7" fill="none" stroke="#000" stroke-miterlimit="10" stroke-width=".47"/><path data-name="Path 2068" d="M492.2 565.25L374.62 477l-34.88 34.88-11.58 50.93" fill="none" stroke="#000" stroke-miterlimit="10" stroke-width=".47"/><path data-name="Path 2069" d="M343.93 507.73l-60.44-60.49-89.06 89 93 30.64 38.83 4.66 17.71-63.82" fill="#fff" stroke="#000" stroke-miterlimit="10" stroke-width=".47"/><path data-name="Path 2070" d="M256.19 565.25L169.86 479l-68 68" fill="#fcbe08" stroke="#5f5655" stroke-width=".47"/><path data-name="Path 2071" d="M379.93 576.4l81.24-81.24 81.2 81.24" fill="#fff" stroke="#000" stroke-miterlimit="10" stroke-width=".47"/><path data-name="Path 2072" d="M456.52 587.46l-56.95-57-52.06 52.06" fill="#fff" stroke="#000" stroke-miterlimit="10" stroke-width=".47"/><path data-name="Path 2073" d="M328.16 576.4l-57-57-52.06 52.06" fill="#fff" stroke="#000" stroke-miterlimit="10" stroke-width=".47"/><path data-name="Path 2074" d="M142.56 506.22l-46.17-46.17-39.73 39.73" fill="#fff" stroke="#000" stroke-miterlimit="10" stroke-width=".47"/><path data-name="Path 2075" d="M240.94 752l99.64-247.64 3.34 3.34L323.35 752"/></g></g><text transform="translate(532.97 732.09)" font-size="18" font-family="Bely-Regular, Bely" style="isolation:isolate"><tspan x="3.96" y="0" letter-spacing="0em">c</tspan><tspan x="11.23" y="0">oördina</tspan><tspan x="66.31" y="0" letter-spacing="0em">t</tspan><tspan x="71.91" y="0">en</tspan></text><text transform="translate(478.22 751.09)" font-size="18" font-family="Bely-Regular, Bely" style="isolation:isolate"><tspan x="3.96" y="0" letter-spacing=".02em">x</tspan><tspan x="13.09" y="0">x.</tspan><tspan x="25.4" y="0" letter-spacing=".02em">xxxx</tspan><tspan x="61.9" y="0">x, </tspan><tspan x="78.06" y="0" letter-spacing=".02em">x</tspan><tspan x="87.19" y="0">x.</tspan><tspan x="99.5" y="0" letter-spacing=".02em">xxxx</tspan><tspan x="136" y="0">x</tspan></text><g data-name="Ellipse 2556"><circle cx="746.66" cy="865.3" r="25" fill="#fcbe08"/><circle cx="746.66" cy="865.3" r="24.5" fill="none" stroke="#707070"/></g><text transform="translate(331.27 487.3)" font-size="59" font-family="BelyDisplay-Regular, Bely Display" style="isolation:isolate">!</text></g></svg>