<svg data-name="Layer 1" xmlns="http://www.w3.org/2000/svg" viewBox="0 0 346.54 483.13"><g data-name="Layer 1"><g data-name="Path 28-2"><path fill="#fff" d="M14.97 126.39L346.01.74l-11.96 265.94L.54 482.18l14.43-355.79z"/><path d="M345.47 1.48L333.56 266.4 1.08 481.24l14.38-354.5 330-125.26M346.54 0L14.48 126 0 483.13 334.54 267l12-267z" fill="#707070"/></g><path d="M174 175.29c7.6-2.92 10-16.81 4.84-30.37-2.68-7-6-8.89-10.11-7.31-3.18 1.22-6.49 5.2-9 10.54 2.5 12.35 4.33 22 5 25.65 3.36 2.1 6.58 2.52 9.27 1.49zM249.06 109.36c-1-2.67-2.93-3.94-5.39-3-4.62 1.77-7.67 10.72-4.81 22.46 10.21-7.45 12.37-13.82 10.2-19.46zM213.73 122.92c-1-2.67-2.93-3.94-5.39-3-4.62 1.77-7.67 10.72-4.81 22.46 10.22-7.45 12.37-13.81 10.2-19.46zM67.91 178.89c-1-2.67-2.93-3.94-5.39-3-4.62 1.77-7.67 10.72-4.81 22.46 10.22-7.44 12.37-13.81 10.2-19.46zM106.59 305.44c-1-2.67-2.93-3.94-5.39-3-4.62 1.77-7.67 10.72-4.81 22.46 10.21-7.45 12.37-13.81 10.2-19.46zM260.73 246.27c-1-2.67-2.93-3.94-5.39-3-4.62 1.77-7.67 10.72-4.81 22.47 10.21-7.46 12.37-13.82 10.2-19.47z" fill="none"/><path fill="#1a1818" d="M24.8 198.27l1.62 8.21 4.63-1.77-4.39-22.47-4.62 1.77 1.62 8.22-.42.75-5.24 2.01-.07 5.33 6.26-2.41.61.36zM18.39 166.8l3.89-1.5 10.42 10.26.51-.2-3.77-18.11-10.98 4.22-.07 5.33zM44.56 208.6l-.52.19-6.26 16.54-20.31 7.8-.07 5.33 29.66-11.38-2.5-18.48zM75.41 176c-1.85-4.83-6.71-6.73-12.36-4.56-12.73 4.89-16.58 22.5-10.66 37.91 3.79 9.86 10.26 12.91 17.55 10.11 5.44-2.09 10.23-7.11 13.66-13.84l-1-1.14c-2.76 2.95-7 6.24-10.63 7.62-5.34 2-9.29 0-12.41-8.08l-.71-1.85c16.09-11.72 18.96-19.89 16.56-26.17zm-17.7 22.34c-2.86-11.74.19-20.69 4.81-22.46 2.46-1 4.37.33 5.39 3 2.17 5.66.02 12.03-10.2 19.48zM94.5 208.87l7.19-2.76-6.5-33.21c2.89-5.35 6.26-9.47 10.06-10.93 4.31-1.66 6 1.33 6.93 7l2.82 17.88a35.92 35.92 0 001.62 6.68c1.89 4.93 4.84 6.15 8.74 4.66s7.62-6.23 9.58-10L134 187a14.81 14.81 0 01-4.57 2.82c-3.7 1.42-6.28.53-7.31-6.15L119 163.9c-1.33-8.68-6.4-11.45-12-9.28-5.34 2-9.36 7.84-12.25 15.66l-2.25-9.86-.63-.11-11.82 11.81.15 1 7.41.57zM159.79 185l5.25-4.73a17.84 17.84 0 009.64-1c12.94-5 17.67-23 11.67-38.65-3.55-9.24-9.42-12.88-16-10.36-5.24 2-8.81 7.74-11.2 15-4.08-21.06-8.31-42.53-8.31-42.53l-.63-.11-11.93 11.88.15 1 7.3.61 13.54 69zm8.92-47.37c4.11-1.58 7.43.33 10.11 7.31 5.2 13.56 2.76 27.46-4.84 30.37-2.67 1-5.89.61-9.29-1.5-.68-3.62-2.51-13.29-5-25.65 2.53-5.35 5.83-9.33 9.02-10.55zM221.23 120c-1.85-4.83-6.71-6.73-12.36-4.57-12.73 4.89-16.58 22.51-10.66 37.91 3.78 9.86 10.26 12.91 17.55 10.11 5.44-2.09 10.23-7.11 13.66-13.84l-1-1.14a32.92 32.92 0 01-10.63 7.62c-5.34 2.05-9.3 0-12.41-8.08l-.71-1.85c16.09-11.68 18.96-19.86 16.56-26.16zm-17.7 22.35c-2.86-11.75.19-20.69 4.81-22.46 2.46-1 4.37.33 5.39 3 2.17 5.68.02 12.04-10.2 19.5zM256.56 106.48c-1.85-4.83-6.71-6.73-12.36-4.57-12.73 4.89-16.58 22.51-10.66 37.91 3.79 9.86 10.26 12.91 17.55 10.11 5.44-2.09 10.23-7.11 13.66-13.84l-1-1.14a32.92 32.92 0 01-10.63 7.62c-5.34 2.05-9.29 0-12.41-8.08l-.71-1.85c16.09-11.72 19-19.9 16.56-26.16zm-17.7 22.35c-2.86-11.75.19-20.69 4.81-22.46 2.46-1 4.37.33 5.39 3 2.17 5.63.01 12-10.2 19.46zM285.08 88.11l-11.3 4.34L271 78.09l-1.54.59-2.86 16.52-5.6 5.44.36 1.86 6.16-2.37 5.27 26.87c1.66 8.32 3.76 13.17 9.92 10.8 4.93-1.89 9.7-7.26 12.91-13.32l-1-1.14c-2.47 2.48-5.11 4.79-8 5.89-4 1.54-5.6.15-7.39-8.83l-4.48-23L286 93z"/><path d="M312.31 125.26l-8.88-45.84-.63-.11-12 11.93.15 1 7.41.57 7.11 36.63c2.23 11.63-.08 17.59-6.51 24.18l1.1 1.94c11.01-7.44 15.14-15.39 12.25-30.3zM297.81 69.08c2.77-1.06 4.35-4.62 3.52-7.71a5.49 5.49 0 00-7.1-3.76 6.51 6.51 0 00-3.58 7.86 5.47 5.47 0 007.16 3.61zM328.89 100.63l-.71-1.85a89.21 89.21 0 007.47-6l.3-6.67c-1.72 2.78-4.58 5.72-8.88 8.86-2.86-11.75.19-20.69 4.81-22.46a3.61 3.61 0 014.61 1.5l.31-6.82a12.46 12.46 0 00-4.38.88C319.69 73 315.84 90.58 321.76 106c2.94 7.66 7.51 11.19 12.81 11.08l.37-8.21c-2.34-1.14-4.33-3.75-6.05-8.24zM42.48 332.4l6.9 35.17 7.19-2.76-6.5-33.21c2.89-5.35 6.26-9.47 10.06-10.93 4.31-1.66 6.05 1.33 6.93 7l2.86 17.88a35.92 35.92 0 001.62 6.68c1.89 4.93 4.84 6.15 8.74 4.66s7.62-6.23 9.58-10l-1-1.14a14.81 14.81 0 01-4.57 2.82c-3.7 1.42-6.28.53-7.31-6.15l-3.14-19.82c-1.33-8.68-6.4-11.45-12.05-9.28-5.34 2.05-9.36 7.84-12.25 15.66l-2.25-9.86-.63-.11-11.73 11.81.15 1zM108.62 346c5.44-2.09 10.23-7.11 13.66-13.84l-1-1.14c-2.76 2.95-7 6.24-10.63 7.62-5.34 2-9.3 0-12.41-8.08l-.71-1.85c16.12-11.72 19-19.9 16.59-26.16-1.85-4.83-6.71-6.73-12.36-4.57-12.76 4.91-16.61 22.52-10.69 37.93 3.78 9.85 10.25 12.91 17.55 10.09zm-7.42-43.58c2.46-.95 4.37.33 5.39 3 2.17 5.65 0 12-10.2 19.47-2.86-11.73.19-20.68 4.81-22.45zM130.32 323.07c1.66 8.32 3.76 13.17 9.92 10.8 4.93-1.89 9.7-7.26 12.91-13.32l-1-1.14c-2.47 2.48-5.11 4.79-8 5.89-4 1.54-5.6.15-7.39-8.83l-4.48-23 11.3-4.34-.95-4.94-11.3 4.34-2.8-14.36-1.54.59-2.85 16.53-5.57 5.44.36 1.86 6.16-2.37zM189.52 271c4.31-1.66 6 1.33 6.93 7l2.86 17.87a35.92 35.92 0 001.62 6.68c1.89 4.93 4.84 6.15 8.74 4.66s7.62-6.23 9.58-10l-1-1.14a14.81 14.81 0 01-4.57 2.82c-3.7 1.42-6.28.52-7.31-6.15l-3.11-19.78c-1.33-8.68-6.4-11.45-12-9.28-5.34 2.05-9.36 7.84-12.25 15.66l-2.25-9.86-.63-.11-11.73 11.81.15 1 7.41.57 6.9 35.17 7.19-2.76-6.5-33.21c2.8-5.36 6.17-9.48 9.97-10.95zM215.84 229.09a6.51 6.51 0 00-3.58 7.86 5.46 5.46 0 007.16 3.61c2.77-1.06 4.35-4.62 3.52-7.71a5.49 5.49 0 00-7.1-3.76zM224.25 286.31A33.62 33.62 0 00226 293c1.85 4.83 4.53 6.27 8.64 4.7 3.9-1.5 7.52-6.19 9.37-10l-1-1.14a14 14 0 01-4.58 2.82c-3.18 1.22-5 .5-6.21-2.68a22.5 22.5 0 01-1.13-4.16l-5.71-31.74-.63-.11-12 11.93.25 1 7.3.61zM262.76 286.85c5.44-2.09 10.23-7.11 13.66-13.84l-1-1.14c-2.76 2.94-7 6.23-10.63 7.61-5.34 2-9.3 0-12.41-8.08l-.71-1.85c16.12-11.72 19-19.9 16.59-26.16-1.85-4.83-6.71-6.73-12.36-4.57-12.73 4.89-16.58 22.51-10.66 37.91 3.76 9.86 10.22 12.92 17.52 10.12zm-7.42-43.58c2.46-1 4.37.33 5.39 3 2.17 5.65 0 12-10.2 19.47-2.86-11.74.18-20.69 4.81-22.47zM284.46 263.9c1.66 8.32 3.76 13.17 9.92 10.8 4.93-1.89 9.7-7.26 12.91-13.32l-1-1.14c-2.47 2.48-5.11 4.79-8 5.89-4 1.54-5.6.15-7.39-8.83l-4.48-23 11.3-4.34-.95-4.94-11.3 4.34-2.82-14.36-1.54.59-2.85 16.53-5.57 5.44.36 1.86 6.16-2.37zM314.66 261.86c1.1 2.88 3.74 4.22 6.51 3.16 3.7-1.42 5.05-6.18 3.71-9.67a4.85 4.85 0 00-6.47-3c-3.69 1.35-5.09 6.01-3.75 9.51z" fill="#1a1818"/></g></svg>