<?xml version="1.0" encoding="utf-8"?>
<!-- Generator: Adobe Illustrator 24.0.3, SVG Export Plug-In . SVG Version: 6.00 Build 0)  -->
<svg version="1.1" xmlns="http://www.w3.org/2000/svg" xmlns:xlink="http://www.w3.org/1999/xlink" x="0px" y="0px"
	 viewBox="0 0 681 321" style="enable-background:new 0 0 681 321;" xml:space="preserve">
<style type="text/css">
	.st0{fill:#FCC115;stroke:#666666;stroke-width:1.0078;stroke-miterlimit:10;}
	.st1{fill:#FCC115;stroke:#666666;stroke-miterlimit:10;}
	.st2{fill:#FCC115;stroke:#707070;}
	.st3{fill:none;stroke:#000000;stroke-width:7.0866;}
	.st4{fill:none;}
	.st5{fill:none;stroke:#707070;}
	.st6{fill:#FFFFFF;}
	.st7{fill:#FFFFFF;stroke:#707070;}
	.st8{stroke:#000000;stroke-width:2.8346;stroke-miterlimit:10;}
	.st9{clip-path:url(#SVGID_2_);}
	.st10{clip-path:url(#SVGID_4_);}
	.st11{enable-background:new    ;}
	.st12{stroke:#000000;stroke-miterlimit:10;}
	.st13{fill:#FFFFFF;stroke:#000000;stroke-width:1.0006;}
	.st14{fill:#707070;}
	.st15{clip-path:url(#Path_28-2_33_);}
	.st16{clip-path:url(#Path_28-2_67_);}
	.st17{clip-path:url(#Path_28-2_68_);}
	.st18{clip-path:url(#Path_28-2_69_);}
	.st19{clip-path:url(#Path_28-2_70_);}
	.st20{clip-path:url(#Path_28-2_71_);}
	.st21{clip-path:url(#Path_28-2_72_);}
	.st22{clip-path:url(#Path_28-2_73_);}
	.st23{clip-path:url(#Path_28-2_74_);}
	.st24{clip-path:url(#Path_28-2_75_);}
	.st25{clip-path:url(#Path_28-2_76_);}
	.st26{fill:#FFFFFF;stroke:#1A1818;stroke-width:1.0004;stroke-miterlimit:10.0042;}
	.st27{fill:#120303;}
	.st28{fill:#1A1818;}
	.st29{clip-path:url(#SVGID_6_);}
	.st30{clip-path:url(#SVGID_8_);}
	.st31{clip-path:url(#Path_28-2_77_);}
	.st32{clip-path:url(#Path_28-2_78_);}
	.st33{clip-path:url(#Path_28-2_79_);}
	.st34{clip-path:url(#Path_28-2_80_);}
	.st35{clip-path:url(#Path_28-2_81_);}
	.st36{clip-path:url(#Path_28-2_82_);}
	.st37{display:none;}
	.st38{fill:#FCBE08;}
	.st39{fill:#666666;}
	.st40{clip-path:url(#SVGID_10_);}
	.st41{fill:#FCBE08;stroke:#5F5655;stroke-width:0.471;}
	.st42{fill:none;stroke:#000000;stroke-width:0.471;stroke-miterlimit:10;}
	.st43{fill:#FFFFFF;stroke:#000000;stroke-width:0.471;stroke-miterlimit:10;}
	.st44{fill:none;stroke:#000000;stroke-miterlimit:10;}
</style>
<g id="Layer_1">
	<path class="st6" d="M396,192c-85.79,0-162.71,8.61-214.79,22.2c-43.45,11.34-69.71,26.12-69.71,42.3
		c0,35.62,127.38,64.5,284.5,64.5s284.5-28.88,284.5-64.5C680.5,220.88,553.12,192,396,192z"/>
	<path class="st12" d="M543.5,225.5c-60.68,0-112.1,39.6-129.86,94.36c32.14-0.44,63.36-2.09,93.01-4.93
		c16.84-1.61,33.08-3.61,48.27-5.94c15.04-2.3,29.18-4.95,42.04-7.86c12.84-2.91,24.5-6.11,34.64-9.52
		c8.71-2.92,16.35-6.01,22.8-9.21C629.62,247.94,589.18,225.5,543.5,225.5z"/>
</g>
<g id="Layer_4">
</g>
<g id="Layer_2" class="st37">
</g>
<g id="Layer_3">
</g>
</svg>
