<svg xmlns="http://www.w3.org/2000/svg" viewBox="0 0 977.5 907.5"><defs><clipPath id="a"><path fill="none" d="M194.5 94h691v718h-691z"/></clipPath></defs><g data-name="Layer 3"><path fill="#fcbe08" d="M9.14 37.41h959v859h-959z"/><path d="M967.64 37.91v858h-958v-858h958m1-1h-960v860h960v-860z" fill="#666"/><g data-name="Rectangle 1741"><path fill="#fff" d="M194.24 93.5h681V802h-681z"/><path fill="none" stroke="#707070" d="M194.73 94h680v707.5h-680z"/></g><g data-name="Repeat Grid 3" clip-path="url(#a)"><g data-name="Ellipse 2555"><circle cx="219.5" cy="119" r="25" fill="#fff"/><circle cx="219.5" cy="119" r="24.5" fill="none" stroke="#707070"/></g><g data-name="Ellipse 2555-2"><circle cx="289.5" cy="119" r="25" fill="#fff"/><circle cx="289.5" cy="119" r="24.5" fill="none" stroke="#707070"/></g><g data-name="Ellipse 2555-3"><circle cx="359.5" cy="119" r="25" fill="#fff"/><circle cx="359.5" cy="119" r="24.5" fill="none" stroke="#707070"/></g><g data-name="Ellipse 2555-4"><circle cx="429.5" cy="119" r="25" fill="#fff"/><circle cx="429.5" cy="119" r="24.5" fill="none" stroke="#707070"/></g><g data-name="Ellipse 2555-5"><circle cx="499.5" cy="119" r="25" fill="#fff"/><circle cx="499.5" cy="119" r="24.5" fill="none" stroke="#707070"/></g><g data-name="Ellipse 2555-6"><circle cx="569.5" cy="119" r="25" fill="#fff"/><circle cx="569.5" cy="119" r="24.5" fill="none" stroke="#707070"/></g><g data-name="Ellipse 2555-7"><circle cx="639.5" cy="119" r="25" fill="#fff"/><circle cx="639.5" cy="119" r="24.5" fill="none" stroke="#707070"/></g><g data-name="Ellipse 2555-8"><circle cx="709.5" cy="119" r="25" fill="#fff"/><circle cx="709.5" cy="119" r="24.5" fill="none" stroke="#707070"/></g><g data-name="Ellipse 2555-9"><circle cx="779.5" cy="119" r="25" fill="#fff"/><circle cx="779.5" cy="119" r="24.5" fill="none" stroke="#707070"/></g><g data-name="Ellipse 2555-10"><circle cx="849.5" cy="119" r="25" fill="#fff"/><circle cx="849.5" cy="119" r="24.5" fill="none" stroke="#707070"/></g><g data-name="Ellipse 2555-11"><circle cx="219.5" cy="192" r="25" fill="#fff"/><circle cx="219.5" cy="192" r="24.5" fill="none" stroke="#707070"/></g><g data-name="Ellipse 2555-12"><circle cx="289.5" cy="192" r="25" fill="#fff"/><circle cx="289.5" cy="192" r="24.5" fill="none" stroke="#707070"/></g><g data-name="Ellipse 2555-13"><circle cx="359.5" cy="192" r="25" fill="#fff"/><circle cx="359.5" cy="192" r="24.5" fill="none" stroke="#707070"/></g><g data-name="Ellipse 2555-14"><circle cx="429.5" cy="192" r="25" fill="#fff"/><circle cx="429.5" cy="192" r="24.5" fill="none" stroke="#707070"/></g><g data-name="Ellipse 2555-15"><circle cx="499.5" cy="192" r="25" fill="#fff"/><circle cx="499.5" cy="192" r="24.5" fill="none" stroke="#707070"/></g><g data-name="Ellipse 2555-16"><circle cx="569.5" cy="192" r="25" fill="#fff"/><circle cx="569.5" cy="192" r="24.5" fill="none" stroke="#707070"/></g><g data-name="Ellipse 2555-17"><circle cx="639.5" cy="192" r="25" fill="#fff"/><circle cx="639.5" cy="192" r="24.5" fill="none" stroke="#707070"/></g><g data-name="Ellipse 2555-18"><circle cx="709.5" cy="192" r="25" fill="#fff"/><circle cx="709.5" cy="192" r="24.5" fill="none" stroke="#707070"/></g><g data-name="Ellipse 2555-19"><circle cx="779.5" cy="192" r="25" fill="#fff"/><circle cx="779.5" cy="192" r="24.5" fill="none" stroke="#707070"/></g><g data-name="Ellipse 2555-20"><circle cx="849.5" cy="192" r="25" fill="#fff"/><circle cx="849.5" cy="192" r="24.5" fill="none" stroke="#707070"/></g><g data-name="Ellipse 2555-21"><circle cx="219.5" cy="265" r="25" fill="#fff"/><circle cx="219.5" cy="265" r="24.5" fill="none" stroke="#707070"/></g><g data-name="Ellipse 2555-22"><circle cx="289.5" cy="265" r="25" fill="#fff"/><circle cx="289.5" cy="265" r="24.5" fill="none" stroke="#707070"/></g><g data-name="Ellipse 2555-23"><circle cx="359.5" cy="265" r="25" fill="#fff"/><circle cx="359.5" cy="265" r="24.5" fill="none" stroke="#707070"/></g><g data-name="Ellipse 2555-24"><circle cx="429.5" cy="265" r="25" fill="#fff"/><circle cx="429.5" cy="265" r="24.5" fill="none" stroke="#707070"/></g><g data-name="Ellipse 2555-25"><circle cx="499.5" cy="265" r="25" fill="#fff"/><circle cx="499.5" cy="265" r="24.5" fill="none" stroke="#707070"/></g><g data-name="Ellipse 2555-26"><circle cx="569.5" cy="265" r="25" fill="#fff"/><circle cx="569.5" cy="265" r="24.5" fill="none" stroke="#707070"/></g><g data-name="Ellipse 2555-27"><circle cx="639.5" cy="265" r="25" fill="#fff"/><circle cx="639.5" cy="265" r="24.5" fill="none" stroke="#707070"/></g><g data-name="Ellipse 2555-28"><circle cx="709.5" cy="265" r="25" fill="#fff"/><circle cx="709.5" cy="265" r="24.5" fill="none" stroke="#707070"/></g><g data-name="Ellipse 2555-29"><circle cx="779.5" cy="265" r="25" fill="#fff"/><circle cx="779.5" cy="265" r="24.5" fill="none" stroke="#707070"/></g><g data-name="Ellipse 2555-30"><circle cx="849.5" cy="265" r="25" fill="#fff"/><circle cx="849.5" cy="265" r="24.5" fill="none" stroke="#707070"/></g><g data-name="Ellipse 2555-31"><circle cx="219.5" cy="338" r="25" fill="#fff"/><circle cx="219.5" cy="338" r="24.5" fill="none" stroke="#707070"/></g><g data-name="Ellipse 2555-32"><circle cx="289.5" cy="338" r="25" fill="#fff"/><circle cx="289.5" cy="338" r="24.5" fill="none" stroke="#707070"/></g><g data-name="Ellipse 2555-33"><circle cx="359.5" cy="338" r="25" fill="#fff"/><circle cx="359.5" cy="338" r="24.5" fill="none" stroke="#707070"/></g><g data-name="Ellipse 2555-34"><circle cx="429.5" cy="338" r="25" fill="#fff"/><circle cx="429.5" cy="338" r="24.5" fill="none" stroke="#707070"/></g><g data-name="Ellipse 2555-35"><circle cx="499.5" cy="338" r="25" fill="#fff"/><circle cx="499.5" cy="338" r="24.5" fill="none" stroke="#707070"/></g><g data-name="Ellipse 2555-36"><circle cx="569.5" cy="338" r="25" fill="#fff"/><circle cx="569.5" cy="338" r="24.5" fill="none" stroke="#707070"/></g><g data-name="Ellipse 2555-37"><circle cx="639.5" cy="338" r="25" fill="#fff"/><circle cx="639.5" cy="338" r="24.5" fill="none" stroke="#707070"/></g><g data-name="Ellipse 2555-38"><circle cx="709.5" cy="338" r="25" fill="#fff"/><circle cx="709.5" cy="338" r="24.5" fill="none" stroke="#707070"/></g><g data-name="Ellipse 2555-39"><circle cx="779.5" cy="338" r="25" fill="#fff"/><circle cx="779.5" cy="338" r="24.5" fill="none" stroke="#707070"/></g><g data-name="Ellipse 2555-40"><circle cx="849.5" cy="338" r="25" fill="#fff"/><circle cx="849.5" cy="338" r="24.5" fill="none" stroke="#707070"/></g><g data-name="Ellipse 2555-41"><circle cx="219.5" cy="411" r="25" fill="#fff"/><circle cx="219.5" cy="411" r="24.5" fill="none" stroke="#707070"/></g><g data-name="Ellipse 2555-42"><circle cx="289.5" cy="411" r="25" fill="#fff"/><circle cx="289.5" cy="411" r="24.5" fill="none" stroke="#707070"/></g><g data-name="Ellipse 2555-43"><circle cx="359.5" cy="411" r="25" fill="#fff"/><circle cx="359.5" cy="411" r="24.5" fill="none" stroke="#707070"/></g><g data-name="Ellipse 2555-44"><circle cx="429.5" cy="411" r="25" fill="#fff"/><circle cx="429.5" cy="411" r="24.5" fill="none" stroke="#707070"/></g><g data-name="Ellipse 2555-45"><circle cx="499.5" cy="411" r="25" fill="#fff"/><circle cx="499.5" cy="411" r="24.5" fill="none" stroke="#707070"/></g><g data-name="Ellipse 2555-46"><circle cx="569.5" cy="411" r="25" fill="#fff"/><circle cx="569.5" cy="411" r="24.5" fill="none" stroke="#707070"/></g><g data-name="Ellipse 2555-47"><circle cx="639.5" cy="411" r="25" fill="#fff"/><circle cx="639.5" cy="411" r="24.5" fill="none" stroke="#707070"/></g><g data-name="Ellipse 2555-48"><circle cx="709.5" cy="411" r="25" fill="#fff"/><circle cx="709.5" cy="411" r="24.5" fill="none" stroke="#707070"/></g><g data-name="Ellipse 2555-49"><circle cx="779.5" cy="411" r="25" fill="#fff"/><circle cx="779.5" cy="411" r="24.5" fill="none" stroke="#707070"/></g><g data-name="Ellipse 2555-50"><circle cx="849.5" cy="411" r="25" fill="#fff"/><circle cx="849.5" cy="411" r="24.5" fill="none" stroke="#707070"/></g><g data-name="Ellipse 2555-51"><circle cx="219.5" cy="484" r="25" fill="#fff"/><circle cx="219.5" cy="484" r="24.5" fill="none" stroke="#707070"/></g><g data-name="Ellipse 2555-52"><circle cx="289.5" cy="484" r="25" fill="#fff"/><circle cx="289.5" cy="484" r="24.5" fill="none" stroke="#707070"/></g><g data-name="Ellipse 2555-53"><circle cx="359.5" cy="484" r="25" fill="#fff"/><circle cx="359.5" cy="484" r="24.5" fill="none" stroke="#707070"/></g><g data-name="Ellipse 2555-54"><circle cx="429.5" cy="484" r="25" fill="#fff"/><circle cx="429.5" cy="484" r="24.5" fill="none" stroke="#707070"/></g><g data-name="Ellipse 2555-55"><circle cx="499.5" cy="484" r="25" fill="#fff"/><circle cx="499.5" cy="484" r="24.5" fill="none" stroke="#707070"/></g><g data-name="Ellipse 2555-56"><circle cx="569.5" cy="484" r="25" fill="#fff"/><circle cx="569.5" cy="484" r="24.5" fill="none" stroke="#707070"/></g><g data-name="Ellipse 2555-57"><circle cx="639.5" cy="484" r="25" fill="#fff"/><circle cx="639.5" cy="484" r="24.5" fill="none" stroke="#707070"/></g><g data-name="Ellipse 2555-58"><circle cx="709.5" cy="484" r="25" fill="#fff"/><circle cx="709.5" cy="484" r="24.5" fill="none" stroke="#707070"/></g><g data-name="Ellipse 2555-59"><circle cx="779.5" cy="484" r="25" fill="#fff"/><circle cx="779.5" cy="484" r="24.5" fill="none" stroke="#707070"/></g><g data-name="Ellipse 2555-60"><circle cx="849.5" cy="484" r="25" fill="#fff"/><circle cx="849.5" cy="484" r="24.5" fill="none" stroke="#707070"/></g><g data-name="Ellipse 2555-61"><circle cx="219.5" cy="557" r="25" fill="#fff"/><circle cx="219.5" cy="557" r="24.5" fill="none" stroke="#707070"/></g><g data-name="Ellipse 2555-62"><circle cx="289.5" cy="557" r="25" fill="#fff"/><circle cx="289.5" cy="557" r="24.5" fill="none" stroke="#707070"/></g><g data-name="Ellipse 2555-63"><circle cx="359.5" cy="557" r="25" fill="#fff"/><circle cx="359.5" cy="557" r="24.5" fill="none" stroke="#707070"/></g><g data-name="Ellipse 2555-64"><circle cx="429.5" cy="557" r="25" fill="#fff"/><circle cx="429.5" cy="557" r="24.5" fill="none" stroke="#707070"/></g><g data-name="Ellipse 2555-65"><circle cx="499.5" cy="557" r="25" fill="#fff"/><circle cx="499.5" cy="557" r="24.5" fill="none" stroke="#707070"/></g><g data-name="Ellipse 2555-66"><circle cx="569.5" cy="557" r="25" fill="#fff"/><circle cx="569.5" cy="557" r="24.5" fill="none" stroke="#707070"/></g><g data-name="Ellipse 2555-67"><circle cx="639.5" cy="557" r="25" fill="#fff"/><circle cx="639.5" cy="557" r="24.5" fill="none" stroke="#707070"/></g><g data-name="Ellipse 2555-68"><circle cx="709.5" cy="557" r="25" fill="#fff"/><circle cx="709.5" cy="557" r="24.5" fill="none" stroke="#707070"/></g><g data-name="Ellipse 2555-69"><circle cx="779.5" cy="557" r="25" fill="#fff"/><circle cx="779.5" cy="557" r="24.5" fill="none" stroke="#707070"/></g><g data-name="Ellipse 2555-70"><circle cx="849.5" cy="557" r="25" fill="#fff"/><circle cx="849.5" cy="557" r="24.5" fill="none" stroke="#707070"/></g><g data-name="Ellipse 2555-71"><circle cx="219.5" cy="630" r="25" fill="#fff"/><circle cx="219.5" cy="630" r="24.5" fill="none" stroke="#707070"/></g><g data-name="Ellipse 2555-72"><circle cx="289.5" cy="630" r="25" fill="#fff"/><circle cx="289.5" cy="630" r="24.5" fill="none" stroke="#707070"/></g><g data-name="Ellipse 2555-73"><circle cx="359.5" cy="630" r="25" fill="#fff"/><circle cx="359.5" cy="630" r="24.5" fill="none" stroke="#707070"/></g><g data-name="Ellipse 2555-74"><circle cx="429.5" cy="630" r="25" fill="#fff"/><circle cx="429.5" cy="630" r="24.5" fill="none" stroke="#707070"/></g><g data-name="Ellipse 2555-75"><circle cx="499.5" cy="630" r="25" fill="#fff"/><circle cx="499.5" cy="630" r="24.5" fill="none" stroke="#707070"/></g><g data-name="Ellipse 2555-76"><circle cx="569.5" cy="630" r="25" fill="#fff"/><circle cx="569.5" cy="630" r="24.5" fill="none" stroke="#707070"/></g><g data-name="Ellipse 2555-77"><circle cx="639.5" cy="630" r="25" fill="#fff"/><circle cx="639.5" cy="630" r="24.5" fill="none" stroke="#707070"/></g><g data-name="Ellipse 2555-78"><circle cx="709.5" cy="630" r="25" fill="#fff"/><circle cx="709.5" cy="630" r="24.5" fill="none" stroke="#707070"/></g><g data-name="Ellipse 2555-79"><circle cx="779.5" cy="630" r="25" fill="#fff"/><circle cx="779.5" cy="630" r="24.5" fill="none" stroke="#707070"/></g><g data-name="Ellipse 2555-80"><circle cx="849.5" cy="630" r="25" fill="#fff"/><circle cx="849.5" cy="630" r="24.5" fill="none" stroke="#707070"/></g><g data-name="Ellipse 2555-81"><circle cx="219.5" cy="703" r="25" fill="#fff"/><circle cx="219.5" cy="703" r="24.5" fill="none" stroke="#707070"/></g><g data-name="Ellipse 2555-82"><circle cx="289.5" cy="703" r="25" fill="#fff"/><circle cx="289.5" cy="703" r="24.5" fill="none" stroke="#707070"/></g><g data-name="Ellipse 2555-83"><circle cx="359.5" cy="703" r="25" fill="#fff"/><circle cx="359.5" cy="703" r="24.5" fill="none" stroke="#707070"/></g><g data-name="Ellipse 2555-84"><circle cx="429.5" cy="703" r="25" fill="#fff"/><circle cx="429.5" cy="703" r="24.5" fill="none" stroke="#707070"/></g><g data-name="Ellipse 2555-85"><circle cx="499.5" cy="703" r="25" fill="#fff"/><circle cx="499.5" cy="703" r="24.5" fill="none" stroke="#707070"/></g><g data-name="Ellipse 2555-86"><circle cx="569.5" cy="703" r="25" fill="#fff"/><circle cx="569.5" cy="703" r="24.5" fill="none" stroke="#707070"/></g><g data-name="Ellipse 2555-87"><circle cx="639.5" cy="703" r="25" fill="#fff"/><circle cx="639.5" cy="703" r="24.5" fill="none" stroke="#707070"/></g><g data-name="Ellipse 2555-88"><circle cx="709.5" cy="703" r="25" fill="#fff"/><circle cx="709.5" cy="703" r="24.5" fill="none" stroke="#707070"/></g><g data-name="Ellipse 2555-89"><circle cx="779.5" cy="703" r="25" fill="#fff"/><circle cx="779.5" cy="703" r="24.5" fill="none" stroke="#707070"/></g><g data-name="Ellipse 2555-90"><circle cx="849.5" cy="703" r="25" fill="#fff"/><circle cx="849.5" cy="703" r="24.5" fill="none" stroke="#707070"/></g><g data-name="Ellipse 2555-91"><circle cx="219.5" cy="776" r="25" fill="#fff"/><circle cx="219.5" cy="776" r="24.5" fill="none" stroke="#707070"/></g><g data-name="Ellipse 2555-92"><circle cx="289.5" cy="776" r="25" fill="#fff"/><circle cx="289.5" cy="776" r="24.5" fill="none" stroke="#707070"/></g><g data-name="Ellipse 2555-93"><circle cx="359.5" cy="776" r="25" fill="#fff"/><circle cx="359.5" cy="776" r="24.5" fill="none" stroke="#707070"/></g><g data-name="Ellipse 2555-94"><circle cx="429.5" cy="776" r="25" fill="#fff"/><circle cx="429.5" cy="776" r="24.5" fill="none" stroke="#707070"/></g><g data-name="Ellipse 2555-95"><circle cx="499.5" cy="776" r="25" fill="#fff"/><circle cx="499.5" cy="776" r="24.5" fill="none" stroke="#707070"/></g><g data-name="Ellipse 2555-96"><circle cx="569.5" cy="776" r="25" fill="#fff"/><circle cx="569.5" cy="776" r="24.5" fill="none" stroke="#707070"/></g><g data-name="Ellipse 2555-97"><circle cx="639.5" cy="776" r="25" fill="#fff"/><circle cx="639.5" cy="776" r="24.5" fill="none" stroke="#707070"/></g><g data-name="Ellipse 2555-98"><circle cx="709.5" cy="776" r="25" fill="#fff"/><circle cx="709.5" cy="776" r="24.5" fill="none" stroke="#707070"/></g><g data-name="Ellipse 2555-99"><circle cx="779.5" cy="776" r="25" fill="#fff"/><circle cx="779.5" cy="776" r="24.5" fill="none" stroke="#707070"/></g><g data-name="Ellipse 2555-100"><circle cx="849.5" cy="776" r="25" fill="#fff"/><circle cx="849.5" cy="776" r="24.5" fill="none" stroke="#707070"/></g></g><g data-name="Rectangle 1740"><path fill="#fff" d="M102.5 7h684v707h-684z"/><path fill="none" stroke="#707070" d="M103 7.5h683v706H103z"/></g><text transform="rotate(-.97 8910.537 -9458.572)" font-size="65" font-family="BelyDisplay-Regular, Bely Display" style="isolation:isolate" data-name="De toegang"><tspan letter-spacing="-.04em">U</tspan><tspan x="48.29" y="0">w Nie</tspan><tspan x="228.67" y="0" letter-spacing="-.03em">u</tspan><tspan x="268.51" y="0" letter-spacing="-.06em">w</tspan><tspan x="324.09" y="0">e Start</tspan></text><path data-name="Path 2043" d="M158 151.6h550" fill="none" stroke="#707070"/><g data-name="Artwork 15"><g data-name="Group 160"><path data-name="Path 2066" d="M725.19 430.57l-71.36-71.36-73.1 73.05" fill="#fcbe08" stroke="#5f5655" stroke-width=".47"/><path data-name="Path 2067" d="M625.68 387.31l-51.63-51.63-70.7 70.7" fill="none" stroke="#000" stroke-miterlimit="10" stroke-width=".47"/><path data-name="Path 2068" d="M595 475.94l-117.58-88.2-34.88 34.87L431 473.54" fill="none" stroke="#000" stroke-miterlimit="10" stroke-width=".47"/><path data-name="Path 2069" d="M446.77 418.43l-60.44-60.49-89.06 89 93 30.64 38.83 4.66 17.7-63.83" fill="#fff" stroke="#000" stroke-miterlimit="10" stroke-width=".47"/><path data-name="Path 2070" d="M359 475.94l-86.3-86.27-68 68" fill="#fcbe08" stroke="#5f5655" stroke-width=".47"/><path data-name="Path 2071" d="M482.78 487.1L564 405.86l81.2 81.24" fill="#fff" stroke="#000" stroke-miterlimit="10" stroke-width=".47"/><path data-name="Path 2072" d="M559.36 498.16l-56.95-57-52.07 52.06" fill="#fff" stroke="#000" stroke-miterlimit="10" stroke-width=".47"/><path data-name="Path 2073" d="M431 487.1l-57-57-52.06 52.06" fill="#fff" stroke="#000" stroke-miterlimit="10" stroke-width=".47"/><path data-name="Path 2074" d="M245.4 416.92l-46.17-46.18-39.73 39.73" fill="#fff" stroke="#000" stroke-miterlimit="10" stroke-width=".47"/><path data-name="Path 2075" d="M343.78 662.72l99.65-247.64 3.34 3.35-20.57 244.29"/></g></g><text transform="translate(635.81 642.8)" font-size="18" font-family="Bely-Regular, Bely" style="isolation:isolate" data-name="coördinaten"><tspan x="3.96" y="0" letter-spacing="0em">c</tspan><tspan x="11.23" y="0">oördina</tspan><tspan x="66.31" y="0" letter-spacing="0em">t</tspan><tspan x="71.91" y="0">en</tspan></text><text transform="translate(581.06 661.8)" font-size="18" font-family="Bely-Regular, Bely" style="isolation:isolate" data-name="xx.xxxxx xx.xxxxx"><tspan x="3.96" y="0" letter-spacing=".02em">x</tspan><tspan x="13.09" y="0">x.</tspan><tspan x="25.4" y="0" letter-spacing=".02em">xxxx</tspan><tspan x="61.9" y="0">x, </tspan><tspan x="78.06" y="0" letter-spacing=".02em">x</tspan><tspan x="87.19" y="0">x.</tspan><tspan x="99.5" y="0" letter-spacing=".02em">xxxx</tspan><tspan x="136" y="0">x</tspan></text><g data-name="Ellipse 2556"><circle cx="849.5" cy="776" r="25" fill="#fcbe08"/><circle cx="849.5" cy="776" r="24.5" fill="none" stroke="#707070"/></g><text transform="translate(434.11 398)" font-size="59" font-family="BelyDisplay-Regular, Bely Display" style="isolation:isolate">!</text></g></svg>