<?xml version="1.0" encoding="utf-8"?>
<!-- Generator: Adobe Illustrator 24.0.3, SVG Export Plug-In . SVG Version: 6.00 Build 0)  -->
<svg version="1.1" xmlns="http://www.w3.org/2000/svg" xmlns:xlink="http://www.w3.org/1999/xlink" x="0px" y="0px"
	 viewBox="0 0 993 918" style="enable-background:new 0 0 993 918;" xml:space="preserve">
<style type="text/css">
	.st0{fill:#FCC115;stroke:#666666;stroke-width:1.0078;stroke-miterlimit:10;}
	.st1{fill:#FCC115;stroke:#666666;stroke-miterlimit:10;}
	.st2{fill:#FCC115;stroke:#707070;}
	.st3{fill:none;stroke:#000000;stroke-width:7.0866;}
	.st4{fill:none;}
	.st5{fill:none;stroke:#707070;}
	.st6{fill:#FFFFFF;}
	.st7{fill:#FFFFFF;stroke:#707070;}
	.st8{stroke:#000000;stroke-width:2.8346;stroke-miterlimit:10;}
	.st9{clip-path:url(#SVGID_2_);}
	.st10{clip-path:url(#SVGID_4_);}
	.st11{enable-background:new    ;}
	.st12{stroke:#000000;stroke-miterlimit:10;}
	.st13{fill:#FFFFFF;stroke:#000000;stroke-width:1.0006;}
	.st14{fill:#707070;}
	.st15{clip-path:url(#Path_28-2_33_);}
	.st16{clip-path:url(#Path_28-2_67_);}
	.st17{clip-path:url(#Path_28-2_68_);}
	.st18{clip-path:url(#Path_28-2_69_);}
	.st19{clip-path:url(#Path_28-2_70_);}
	.st20{clip-path:url(#Path_28-2_71_);}
	.st21{clip-path:url(#Path_28-2_72_);}
	.st22{clip-path:url(#Path_28-2_73_);}
	.st23{clip-path:url(#Path_28-2_74_);}
	.st24{clip-path:url(#Path_28-2_75_);}
	.st25{clip-path:url(#Path_28-2_76_);}
	.st26{fill:#FFFFFF;stroke:#1A1818;stroke-width:1.0004;stroke-miterlimit:10.0042;}
	.st27{fill:#120303;}
	.st28{fill:#1A1818;}
	.st29{clip-path:url(#SVGID_6_);}
	.st30{clip-path:url(#SVGID_8_);}
	.st31{clip-path:url(#Path_28-2_77_);}
	.st32{clip-path:url(#Path_28-2_78_);}
	.st33{clip-path:url(#Path_28-2_79_);}
	.st34{clip-path:url(#Path_28-2_80_);}
	.st35{clip-path:url(#Path_28-2_81_);}
	.st36{clip-path:url(#Path_28-2_82_);}
	.st37{display:none;}
	.st38{font-family:'BelyDisplay-Regular';}
	.st39{font-size:65px;}
	.st40{fill:#FCBE08;stroke:#5F5655;stroke-width:0.471;}
	.st41{fill:none;stroke:#000000;stroke-width:0.471;stroke-miterlimit:10;}
	.st42{fill:#FFFFFF;stroke:#000000;stroke-width:0.471;stroke-miterlimit:10;}
	.st43{fill:none;stroke:#000000;stroke-miterlimit:10;}
	.st44{font-family:'Bely-Regular';}
	.st45{font-size:18px;}
	.st46{fill:#FCBE08;}
	.st47{font-size:59px;}
</style>
<g id="Layer_1">
</g>
<g id="Layer_4">
</g>
<g id="Layer_2" class="st37">
</g>
<g id="Layer_3">
	<g id="Rectangle_1741" transform="translate(183 176)">
		<rect x="18.4" y="-75.2" class="st6" width="681" height="708.5"/>
		<rect x="18.89" y="-74.7" class="st5" width="680" height="707.5"/>
	</g>
	<g>
		<g id="Repeat_Grid_3" transform="translate(186 176)">
			<g transform="translate(-905 -11725)">
				<g id="Ellipse_2555" transform="translate(905 11725)">
					<circle class="st6" cx="40.66" cy="-49.7" r="25"/>
					<circle class="st5" cx="40.66" cy="-49.7" r="24.5"/>
				</g>
			</g>
			<g transform="translate(-835 -11725)">
				<g id="Ellipse_2555-2" transform="translate(905 11725)">
					<circle class="st6" cx="40.66" cy="-49.7" r="25"/>
					<circle class="st5" cx="40.66" cy="-49.7" r="24.5"/>
				</g>
			</g>
			<g transform="translate(-765 -11725)">
				<g id="Ellipse_2555-3" transform="translate(905 11725)">
					<circle class="st6" cx="40.66" cy="-49.7" r="25"/>
					<circle class="st5" cx="40.66" cy="-49.7" r="24.5"/>
				</g>
			</g>
			<g transform="translate(-695 -11725)">
				<g id="Ellipse_2555-4" transform="translate(905 11725)">
					<circle class="st6" cx="40.66" cy="-49.7" r="25"/>
					<circle class="st5" cx="40.66" cy="-49.7" r="24.5"/>
				</g>
			</g>
			<g transform="translate(-625 -11725)">
				<g id="Ellipse_2555-5" transform="translate(905 11725)">
					<circle class="st6" cx="40.66" cy="-49.7" r="25"/>
					<circle class="st5" cx="40.66" cy="-49.7" r="24.5"/>
				</g>
			</g>
			<g transform="translate(-555 -11725)">
				<g id="Ellipse_2555-6" transform="translate(905 11725)">
					<circle class="st6" cx="40.66" cy="-49.7" r="25"/>
					<circle class="st5" cx="40.66" cy="-49.7" r="24.5"/>
				</g>
			</g>
			<g transform="translate(-485 -11725)">
				<g id="Ellipse_2555-7" transform="translate(905 11725)">
					<circle class="st6" cx="40.66" cy="-49.7" r="25"/>
					<circle class="st5" cx="40.66" cy="-49.7" r="24.5"/>
				</g>
			</g>
			<g transform="translate(-415 -11725)">
				<g id="Ellipse_2555-8" transform="translate(905 11725)">
					<circle class="st6" cx="40.66" cy="-49.7" r="25"/>
					<circle class="st5" cx="40.66" cy="-49.7" r="24.5"/>
				</g>
			</g>
			<g transform="translate(-345 -11725)">
				<g id="Ellipse_2555-9" transform="translate(905 11725)">
					<circle class="st6" cx="40.66" cy="-49.7" r="25"/>
					<circle class="st5" cx="40.66" cy="-49.7" r="24.5"/>
				</g>
			</g>
			<g transform="translate(-275 -11725)">
				<g id="Ellipse_2555-10" transform="translate(905 11725)">
					<circle class="st6" cx="40.66" cy="-49.7" r="25"/>
					<circle class="st5" cx="40.66" cy="-49.7" r="24.5"/>
				</g>
			</g>
			<g transform="translate(-905 -11652)">
				<g id="Ellipse_2555-11" transform="translate(905 11725)">
					<circle class="st6" cx="40.66" cy="-49.7" r="25"/>
					<circle class="st5" cx="40.66" cy="-49.7" r="24.5"/>
				</g>
			</g>
			<g transform="translate(-835 -11652)">
				<g id="Ellipse_2555-12" transform="translate(905 11725)">
					<circle class="st6" cx="40.66" cy="-49.7" r="25"/>
					<circle class="st5" cx="40.66" cy="-49.7" r="24.5"/>
				</g>
			</g>
			<g transform="translate(-765 -11652)">
				<g id="Ellipse_2555-13" transform="translate(905 11725)">
					<circle class="st6" cx="40.66" cy="-49.7" r="25"/>
					<circle class="st5" cx="40.66" cy="-49.7" r="24.5"/>
				</g>
			</g>
			<g transform="translate(-695 -11652)">
				<g id="Ellipse_2555-14" transform="translate(905 11725)">
					<circle class="st6" cx="40.66" cy="-49.7" r="25"/>
					<circle class="st5" cx="40.66" cy="-49.7" r="24.5"/>
				</g>
			</g>
			<g transform="translate(-625 -11652)">
				<g id="Ellipse_2555-15" transform="translate(905 11725)">
					<circle class="st6" cx="40.66" cy="-49.7" r="25"/>
					<circle class="st5" cx="40.66" cy="-49.7" r="24.5"/>
				</g>
			</g>
			<g transform="translate(-555 -11652)">
				<g id="Ellipse_2555-16" transform="translate(905 11725)">
					<circle class="st6" cx="40.66" cy="-49.7" r="25"/>
					<circle class="st5" cx="40.66" cy="-49.7" r="24.5"/>
				</g>
			</g>
			<g transform="translate(-485 -11652)">
				<g id="Ellipse_2555-17" transform="translate(905 11725)">
					<circle class="st6" cx="40.66" cy="-49.7" r="25"/>
					<circle class="st5" cx="40.66" cy="-49.7" r="24.5"/>
				</g>
			</g>
			<g transform="translate(-415 -11652)">
				<g id="Ellipse_2555-18" transform="translate(905 11725)">
					<circle class="st6" cx="40.66" cy="-49.7" r="25"/>
					<circle class="st5" cx="40.66" cy="-49.7" r="24.5"/>
				</g>
			</g>
			<g transform="translate(-345 -11652)">
				<g id="Ellipse_2555-19" transform="translate(905 11725)">
					<circle class="st6" cx="40.66" cy="-49.7" r="25"/>
					<circle class="st5" cx="40.66" cy="-49.7" r="24.5"/>
				</g>
			</g>
			<g transform="translate(-275 -11652)">
				<g id="Ellipse_2555-20" transform="translate(905 11725)">
					<circle class="st6" cx="40.66" cy="-49.7" r="25"/>
					<circle class="st5" cx="40.66" cy="-49.7" r="24.5"/>
				</g>
			</g>
			<g transform="translate(-905 -11579)">
				<g id="Ellipse_2555-21" transform="translate(905 11725)">
					<circle class="st6" cx="40.66" cy="-49.7" r="25"/>
					<circle class="st5" cx="40.66" cy="-49.7" r="24.5"/>
				</g>
			</g>
			<g transform="translate(-835 -11579)">
				<g id="Ellipse_2555-22" transform="translate(905 11725)">
					<circle class="st6" cx="40.66" cy="-49.7" r="25"/>
					<circle class="st5" cx="40.66" cy="-49.7" r="24.5"/>
				</g>
			</g>
			<g transform="translate(-765 -11579)">
				<g id="Ellipse_2555-23" transform="translate(905 11725)">
					<circle class="st6" cx="40.66" cy="-49.7" r="25"/>
					<circle class="st5" cx="40.66" cy="-49.7" r="24.5"/>
				</g>
			</g>
			<g transform="translate(-695 -11579)">
				<g id="Ellipse_2555-24" transform="translate(905 11725)">
					<circle class="st6" cx="40.66" cy="-49.7" r="25"/>
					<circle class="st5" cx="40.66" cy="-49.7" r="24.5"/>
				</g>
			</g>
			<g transform="translate(-625 -11579)">
				<g id="Ellipse_2555-25" transform="translate(905 11725)">
					<circle class="st6" cx="40.66" cy="-49.7" r="25"/>
					<circle class="st5" cx="40.66" cy="-49.7" r="24.5"/>
				</g>
			</g>
			<g transform="translate(-555 -11579)">
				<g id="Ellipse_2555-26" transform="translate(905 11725)">
					<circle class="st6" cx="40.66" cy="-49.7" r="25"/>
					<circle class="st5" cx="40.66" cy="-49.7" r="24.5"/>
				</g>
			</g>
			<g transform="translate(-485 -11579)">
				<g id="Ellipse_2555-27" transform="translate(905 11725)">
					<circle class="st6" cx="40.66" cy="-49.7" r="25"/>
					<circle class="st5" cx="40.66" cy="-49.7" r="24.5"/>
				</g>
			</g>
			<g transform="translate(-415 -11579)">
				<g id="Ellipse_2555-28" transform="translate(905 11725)">
					<circle class="st6" cx="40.66" cy="-49.7" r="25"/>
					<circle class="st5" cx="40.66" cy="-49.7" r="24.5"/>
				</g>
			</g>
			<g transform="translate(-345 -11579)">
				<g id="Ellipse_2555-29" transform="translate(905 11725)">
					<circle class="st6" cx="40.66" cy="-49.7" r="25"/>
					<circle class="st5" cx="40.66" cy="-49.7" r="24.5"/>
				</g>
			</g>
			<g transform="translate(-275 -11579)">
				<g id="Ellipse_2555-30" transform="translate(905 11725)">
					<circle class="st6" cx="40.66" cy="-49.7" r="25"/>
					<circle class="st5" cx="40.66" cy="-49.7" r="24.5"/>
				</g>
			</g>
			<g transform="translate(-905 -11506)">
				<g id="Ellipse_2555-31" transform="translate(905 11725)">
					<circle class="st6" cx="40.66" cy="-49.7" r="25"/>
					<circle class="st5" cx="40.66" cy="-49.7" r="24.5"/>
				</g>
			</g>
			<g transform="translate(-835 -11506)">
				<g id="Ellipse_2555-32" transform="translate(905 11725)">
					<circle class="st6" cx="40.66" cy="-49.7" r="25"/>
					<circle class="st5" cx="40.66" cy="-49.7" r="24.5"/>
				</g>
			</g>
			<g transform="translate(-765 -11506)">
				<g id="Ellipse_2555-33" transform="translate(905 11725)">
					<circle class="st6" cx="40.66" cy="-49.7" r="25"/>
					<circle class="st5" cx="40.66" cy="-49.7" r="24.5"/>
				</g>
			</g>
			<g transform="translate(-695 -11506)">
				<g id="Ellipse_2555-34" transform="translate(905 11725)">
					<circle class="st6" cx="40.66" cy="-49.7" r="25"/>
					<circle class="st5" cx="40.66" cy="-49.7" r="24.5"/>
				</g>
			</g>
			<g transform="translate(-625 -11506)">
				<g id="Ellipse_2555-35" transform="translate(905 11725)">
					<circle class="st6" cx="40.66" cy="-49.7" r="25"/>
					<circle class="st5" cx="40.66" cy="-49.7" r="24.5"/>
				</g>
			</g>
			<g transform="translate(-555 -11506)">
				<g id="Ellipse_2555-36" transform="translate(905 11725)">
					<circle class="st6" cx="40.66" cy="-49.7" r="25"/>
					<circle class="st5" cx="40.66" cy="-49.7" r="24.5"/>
				</g>
			</g>
			<g transform="translate(-485 -11506)">
				<g id="Ellipse_2555-37" transform="translate(905 11725)">
					<circle class="st6" cx="40.66" cy="-49.7" r="25"/>
					<circle class="st5" cx="40.66" cy="-49.7" r="24.5"/>
				</g>
			</g>
			<g transform="translate(-415 -11506)">
				<g id="Ellipse_2555-38" transform="translate(905 11725)">
					<circle class="st6" cx="40.66" cy="-49.7" r="25"/>
					<circle class="st5" cx="40.66" cy="-49.7" r="24.5"/>
				</g>
			</g>
			<g transform="translate(-345 -11506)">
				<g id="Ellipse_2555-39" transform="translate(905 11725)">
					<circle class="st6" cx="40.66" cy="-49.7" r="25"/>
					<circle class="st5" cx="40.66" cy="-49.7" r="24.5"/>
				</g>
			</g>
			<g transform="translate(-275 -11506)">
				<g id="Ellipse_2555-40" transform="translate(905 11725)">
					<circle class="st6" cx="40.66" cy="-49.7" r="25"/>
					<circle class="st5" cx="40.66" cy="-49.7" r="24.5"/>
				</g>
			</g>
			<g transform="translate(-905 -11433)">
				<g id="Ellipse_2555-41" transform="translate(905 11725)">
					<circle class="st6" cx="40.66" cy="-49.7" r="25"/>
					<circle class="st5" cx="40.66" cy="-49.7" r="24.5"/>
				</g>
			</g>
			<g transform="translate(-835 -11433)">
				<g id="Ellipse_2555-42" transform="translate(905 11725)">
					<circle class="st6" cx="40.66" cy="-49.7" r="25"/>
					<circle class="st5" cx="40.66" cy="-49.7" r="24.5"/>
				</g>
			</g>
			<g transform="translate(-765 -11433)">
				<g id="Ellipse_2555-43" transform="translate(905 11725)">
					<circle class="st6" cx="40.66" cy="-49.7" r="25"/>
					<circle class="st5" cx="40.66" cy="-49.7" r="24.5"/>
				</g>
			</g>
			<g transform="translate(-695 -11433)">
				<g id="Ellipse_2555-44" transform="translate(905 11725)">
					<circle class="st6" cx="40.66" cy="-49.7" r="25"/>
					<circle class="st5" cx="40.66" cy="-49.7" r="24.5"/>
				</g>
			</g>
			<g transform="translate(-625 -11433)">
				<g id="Ellipse_2555-45" transform="translate(905 11725)">
					<circle class="st6" cx="40.66" cy="-49.7" r="25"/>
					<circle class="st5" cx="40.66" cy="-49.7" r="24.5"/>
				</g>
			</g>
			<g transform="translate(-555 -11433)">
				<g id="Ellipse_2555-46" transform="translate(905 11725)">
					<circle class="st6" cx="40.66" cy="-49.7" r="25"/>
					<circle class="st5" cx="40.66" cy="-49.7" r="24.5"/>
				</g>
			</g>
			<g transform="translate(-485 -11433)">
				<g id="Ellipse_2555-47" transform="translate(905 11725)">
					<circle class="st6" cx="40.66" cy="-49.7" r="25"/>
					<circle class="st5" cx="40.66" cy="-49.7" r="24.5"/>
				</g>
			</g>
			<g transform="translate(-415 -11433)">
				<g id="Ellipse_2555-48" transform="translate(905 11725)">
					<circle class="st6" cx="40.66" cy="-49.7" r="25"/>
					<circle class="st5" cx="40.66" cy="-49.7" r="24.5"/>
				</g>
			</g>
			<g transform="translate(-345 -11433)">
				<g id="Ellipse_2555-49" transform="translate(905 11725)">
					<circle class="st6" cx="40.66" cy="-49.7" r="25"/>
					<circle class="st5" cx="40.66" cy="-49.7" r="24.5"/>
				</g>
			</g>
			<g transform="translate(-275 -11433)">
				<g id="Ellipse_2555-50" transform="translate(905 11725)">
					<circle class="st6" cx="40.66" cy="-49.7" r="25"/>
					<circle class="st5" cx="40.66" cy="-49.7" r="24.5"/>
				</g>
			</g>
			<g transform="translate(-905 -11360)">
				<g id="Ellipse_2555-51" transform="translate(905 11725)">
					<circle class="st6" cx="40.66" cy="-49.7" r="25"/>
					<circle class="st5" cx="40.66" cy="-49.7" r="24.5"/>
				</g>
			</g>
			<g transform="translate(-835 -11360)">
				<g id="Ellipse_2555-52" transform="translate(905 11725)">
					<circle class="st6" cx="40.66" cy="-49.7" r="25"/>
					<circle class="st5" cx="40.66" cy="-49.7" r="24.5"/>
				</g>
			</g>
			<g transform="translate(-765 -11360)">
				<g id="Ellipse_2555-53" transform="translate(905 11725)">
					<circle class="st6" cx="40.66" cy="-49.7" r="25"/>
					<circle class="st5" cx="40.66" cy="-49.7" r="24.5"/>
				</g>
			</g>
			<g transform="translate(-695 -11360)">
				<g id="Ellipse_2555-54" transform="translate(905 11725)">
					<circle class="st6" cx="40.66" cy="-49.7" r="25"/>
					<circle class="st5" cx="40.66" cy="-49.7" r="24.5"/>
				</g>
			</g>
			<g transform="translate(-625 -11360)">
				<g id="Ellipse_2555-55" transform="translate(905 11725)">
					<circle class="st6" cx="40.66" cy="-49.7" r="25"/>
					<circle class="st5" cx="40.66" cy="-49.7" r="24.5"/>
				</g>
			</g>
			<g transform="translate(-555 -11360)">
				<g id="Ellipse_2555-56" transform="translate(905 11725)">
					<circle class="st6" cx="40.66" cy="-49.7" r="25"/>
					<circle class="st5" cx="40.66" cy="-49.7" r="24.5"/>
				</g>
			</g>
			<g transform="translate(-485 -11360)">
				<g id="Ellipse_2555-57" transform="translate(905 11725)">
					<circle class="st6" cx="40.66" cy="-49.7" r="25"/>
					<circle class="st5" cx="40.66" cy="-49.7" r="24.5"/>
				</g>
			</g>
			<g transform="translate(-415 -11360)">
				<g id="Ellipse_2555-58" transform="translate(905 11725)">
					<circle class="st6" cx="40.66" cy="-49.7" r="25"/>
					<circle class="st5" cx="40.66" cy="-49.7" r="24.5"/>
				</g>
			</g>
			<g transform="translate(-345 -11360)">
				<g id="Ellipse_2555-59" transform="translate(905 11725)">
					<circle class="st6" cx="40.66" cy="-49.7" r="25"/>
					<circle class="st5" cx="40.66" cy="-49.7" r="24.5"/>
				</g>
			</g>
			<g transform="translate(-275 -11360)">
				<g id="Ellipse_2555-60" transform="translate(905 11725)">
					<circle class="st6" cx="40.66" cy="-49.7" r="25"/>
					<circle class="st5" cx="40.66" cy="-49.7" r="24.5"/>
				</g>
			</g>
			<g transform="translate(-905 -11287)">
				<g id="Ellipse_2555-61" transform="translate(905 11725)">
					<circle class="st6" cx="40.66" cy="-49.7" r="25"/>
					<circle class="st5" cx="40.66" cy="-49.7" r="24.5"/>
				</g>
			</g>
			<g transform="translate(-835 -11287)">
				<g id="Ellipse_2555-62" transform="translate(905 11725)">
					<circle class="st6" cx="40.66" cy="-49.7" r="25"/>
					<circle class="st5" cx="40.66" cy="-49.7" r="24.5"/>
				</g>
			</g>
			<g transform="translate(-765 -11287)">
				<g id="Ellipse_2555-63" transform="translate(905 11725)">
					<circle class="st6" cx="40.66" cy="-49.7" r="25"/>
					<circle class="st5" cx="40.66" cy="-49.7" r="24.5"/>
				</g>
			</g>
			<g transform="translate(-695 -11287)">
				<g id="Ellipse_2555-64" transform="translate(905 11725)">
					<circle class="st6" cx="40.66" cy="-49.7" r="25"/>
					<circle class="st5" cx="40.66" cy="-49.7" r="24.5"/>
				</g>
			</g>
			<g transform="translate(-625 -11287)">
				<g id="Ellipse_2555-65" transform="translate(905 11725)">
					<circle class="st6" cx="40.66" cy="-49.7" r="25"/>
					<circle class="st5" cx="40.66" cy="-49.7" r="24.5"/>
				</g>
			</g>
			<g transform="translate(-555 -11287)">
				<g id="Ellipse_2555-66" transform="translate(905 11725)">
					<circle class="st6" cx="40.66" cy="-49.7" r="25"/>
					<circle class="st5" cx="40.66" cy="-49.7" r="24.5"/>
				</g>
			</g>
			<g transform="translate(-485 -11287)">
				<g id="Ellipse_2555-67" transform="translate(905 11725)">
					<circle class="st6" cx="40.66" cy="-49.7" r="25"/>
					<circle class="st5" cx="40.66" cy="-49.7" r="24.5"/>
				</g>
			</g>
			<g transform="translate(-415 -11287)">
				<g id="Ellipse_2555-68" transform="translate(905 11725)">
					<circle class="st6" cx="40.66" cy="-49.7" r="25"/>
					<circle class="st5" cx="40.66" cy="-49.7" r="24.5"/>
				</g>
			</g>
			<g transform="translate(-345 -11287)">
				<g id="Ellipse_2555-69" transform="translate(905 11725)">
					<circle class="st6" cx="40.66" cy="-49.7" r="25"/>
					<circle class="st5" cx="40.66" cy="-49.7" r="24.5"/>
				</g>
			</g>
			<g transform="translate(-275 -11287)">
				<g id="Ellipse_2555-70" transform="translate(905 11725)">
					<circle class="st6" cx="40.66" cy="-49.7" r="25"/>
					<circle class="st5" cx="40.66" cy="-49.7" r="24.5"/>
				</g>
			</g>
			<g transform="translate(-905 -11214)">
				<g id="Ellipse_2555-71" transform="translate(905 11725)">
					<circle class="st6" cx="40.66" cy="-49.7" r="25"/>
					<circle class="st5" cx="40.66" cy="-49.7" r="24.5"/>
				</g>
			</g>
			<g transform="translate(-835 -11214)">
				<g id="Ellipse_2555-72" transform="translate(905 11725)">
					<circle class="st6" cx="40.66" cy="-49.7" r="25"/>
					<circle class="st5" cx="40.66" cy="-49.7" r="24.5"/>
				</g>
			</g>
			<g transform="translate(-765 -11214)">
				<g id="Ellipse_2555-73" transform="translate(905 11725)">
					<circle class="st6" cx="40.66" cy="-49.7" r="25"/>
					<circle class="st5" cx="40.66" cy="-49.7" r="24.5"/>
				</g>
			</g>
			<g transform="translate(-695 -11214)">
				<g id="Ellipse_2555-74" transform="translate(905 11725)">
					<circle class="st6" cx="40.66" cy="-49.7" r="25"/>
					<circle class="st5" cx="40.66" cy="-49.7" r="24.5"/>
				</g>
			</g>
			<g transform="translate(-625 -11214)">
				<g id="Ellipse_2555-75" transform="translate(905 11725)">
					<circle class="st6" cx="40.66" cy="-49.7" r="25"/>
					<circle class="st5" cx="40.66" cy="-49.7" r="24.5"/>
				</g>
			</g>
			<g transform="translate(-555 -11214)">
				<g id="Ellipse_2555-76" transform="translate(905 11725)">
					<circle class="st6" cx="40.66" cy="-49.7" r="25"/>
					<circle class="st5" cx="40.66" cy="-49.7" r="24.5"/>
				</g>
			</g>
			<g transform="translate(-485 -11214)">
				<g id="Ellipse_2555-77" transform="translate(905 11725)">
					<circle class="st6" cx="40.66" cy="-49.7" r="25"/>
					<circle class="st5" cx="40.66" cy="-49.7" r="24.5"/>
				</g>
			</g>
			<g transform="translate(-415 -11214)">
				<g id="Ellipse_2555-78" transform="translate(905 11725)">
					<circle class="st6" cx="40.66" cy="-49.7" r="25"/>
					<circle class="st5" cx="40.66" cy="-49.7" r="24.5"/>
				</g>
			</g>
			<g transform="translate(-345 -11214)">
				<g id="Ellipse_2555-79" transform="translate(905 11725)">
					<circle class="st6" cx="40.66" cy="-49.7" r="25"/>
					<circle class="st5" cx="40.66" cy="-49.7" r="24.5"/>
				</g>
			</g>
			<g transform="translate(-275 -11214)">
				<g id="Ellipse_2555-80" transform="translate(905 11725)">
					<circle class="st6" cx="40.66" cy="-49.7" r="25"/>
					<circle class="st5" cx="40.66" cy="-49.7" r="24.5"/>
				</g>
			</g>
			<g transform="translate(-905 -11141)">
				<g id="Ellipse_2555-81" transform="translate(905 11725)">
					<circle class="st6" cx="40.66" cy="-49.7" r="25"/>
					<circle class="st5" cx="40.66" cy="-49.7" r="24.5"/>
				</g>
			</g>
			<g transform="translate(-835 -11141)">
				<g id="Ellipse_2555-82" transform="translate(905 11725)">
					<circle class="st6" cx="40.66" cy="-49.7" r="25"/>
					<circle class="st5" cx="40.66" cy="-49.7" r="24.5"/>
				</g>
			</g>
			<g transform="translate(-765 -11141)">
				<g id="Ellipse_2555-83" transform="translate(905 11725)">
					<circle class="st6" cx="40.66" cy="-49.7" r="25"/>
					<circle class="st5" cx="40.66" cy="-49.7" r="24.5"/>
				</g>
			</g>
			<g transform="translate(-695 -11141)">
				<g id="Ellipse_2555-84" transform="translate(905 11725)">
					<circle class="st6" cx="40.66" cy="-49.7" r="25"/>
					<circle class="st5" cx="40.66" cy="-49.7" r="24.5"/>
				</g>
			</g>
			<g transform="translate(-625 -11141)">
				<g id="Ellipse_2555-85" transform="translate(905 11725)">
					<circle class="st6" cx="40.66" cy="-49.7" r="25"/>
					<circle class="st5" cx="40.66" cy="-49.7" r="24.5"/>
				</g>
			</g>
			<g transform="translate(-555 -11141)">
				<g id="Ellipse_2555-86" transform="translate(905 11725)">
					<circle class="st6" cx="40.66" cy="-49.7" r="25"/>
					<circle class="st5" cx="40.66" cy="-49.7" r="24.5"/>
				</g>
			</g>
			<g transform="translate(-485 -11141)">
				<g id="Ellipse_2555-87" transform="translate(905 11725)">
					<circle class="st6" cx="40.66" cy="-49.7" r="25"/>
					<circle class="st5" cx="40.66" cy="-49.7" r="24.5"/>
				</g>
			</g>
			<g transform="translate(-415 -11141)">
				<g id="Ellipse_2555-88" transform="translate(905 11725)">
					<circle class="st6" cx="40.66" cy="-49.7" r="25"/>
					<circle class="st5" cx="40.66" cy="-49.7" r="24.5"/>
				</g>
			</g>
			<g transform="translate(-345 -11141)">
				<g id="Ellipse_2555-89" transform="translate(905 11725)">
					<circle class="st6" cx="40.66" cy="-49.7" r="25"/>
					<circle class="st5" cx="40.66" cy="-49.7" r="24.5"/>
				</g>
			</g>
			<g transform="translate(-275 -11141)">
				<g id="Ellipse_2555-90" transform="translate(905 11725)">
					<circle class="st6" cx="40.66" cy="-49.7" r="25"/>
					<circle class="st5" cx="40.66" cy="-49.7" r="24.5"/>
				</g>
			</g>
			<g transform="translate(-905 -11068)">
				<g id="Ellipse_2555-91" transform="translate(905 11725)">
					<circle class="st6" cx="40.66" cy="-49.7" r="25"/>
					<circle class="st5" cx="40.66" cy="-49.7" r="24.5"/>
				</g>
			</g>
			<g transform="translate(-835 -11068)">
				<g id="Ellipse_2555-92" transform="translate(905 11725)">
					<circle class="st6" cx="40.66" cy="-49.7" r="25"/>
					<circle class="st5" cx="40.66" cy="-49.7" r="24.5"/>
				</g>
			</g>
			<g transform="translate(-765 -11068)">
				<g id="Ellipse_2555-93" transform="translate(905 11725)">
					<circle class="st6" cx="40.66" cy="-49.7" r="25"/>
					<circle class="st5" cx="40.66" cy="-49.7" r="24.5"/>
				</g>
			</g>
			<g transform="translate(-695 -11068)">
				<g id="Ellipse_2555-94" transform="translate(905 11725)">
					<circle class="st6" cx="40.66" cy="-49.7" r="25"/>
					<circle class="st5" cx="40.66" cy="-49.7" r="24.5"/>
				</g>
			</g>
			<g transform="translate(-625 -11068)">
				<g id="Ellipse_2555-95" transform="translate(905 11725)">
					<circle class="st6" cx="40.66" cy="-49.7" r="25"/>
					<circle class="st5" cx="40.66" cy="-49.7" r="24.5"/>
				</g>
			</g>
			<g transform="translate(-555 -11068)">
				<g id="Ellipse_2555-96" transform="translate(905 11725)">
					<circle class="st6" cx="40.66" cy="-49.7" r="25"/>
					<circle class="st5" cx="40.66" cy="-49.7" r="24.5"/>
				</g>
			</g>
			<g transform="translate(-485 -11068)">
				<g id="Ellipse_2555-97" transform="translate(905 11725)">
					<circle class="st6" cx="40.66" cy="-49.7" r="25"/>
					<circle class="st5" cx="40.66" cy="-49.7" r="24.5"/>
				</g>
			</g>
			<g transform="translate(-415 -11068)">
				<g id="Ellipse_2555-98" transform="translate(905 11725)">
					<circle class="st6" cx="40.66" cy="-49.7" r="25"/>
					<circle class="st5" cx="40.66" cy="-49.7" r="24.5"/>
				</g>
			</g>
			<g transform="translate(-345 -11068)">
				<g id="Ellipse_2555-99" transform="translate(905 11725)">
					<circle class="st6" cx="40.66" cy="-49.7" r="25"/>
					<circle class="st5" cx="40.66" cy="-49.7" r="24.5"/>
				</g>
			</g>
			<g transform="translate(-275 -11068)">
				<g id="Ellipse_2555-100" transform="translate(905 11725)">
					<circle class="st6" cx="40.66" cy="-49.7" r="25"/>
					<circle class="st5" cx="40.66" cy="-49.7" r="24.5"/>
				</g>
			</g>
		</g>
	</g>
	<g id="Rectangle_1740" transform="translate(94 88)">
		<rect x="15.66" y="-73.7" class="st6" width="684" height="707"/>
		<rect x="16.16" y="-73.2" class="st5" width="683" height="706"/>
	</g>
	<text transform="matrix(0.9999 -0.017 0.017 0.9999 168.6172 156.8065)" class="st38 st39">Uw Nieuwe Start </text>
	<path id="Path_2043" class="st5" d="M165.2,158.89h550"/>
	<g id="Artwork_15" transform="translate(433.843 580.197)">
		<g id="Group_160" transform="translate(-282.842 -163.521)">
			<path id="Path_2066" class="st40" d="M581.34,21.19l-71.36-71.36l-73.1,73.05"/>
			<path id="Path_2067" class="st41" d="M481.84-22.07L430.2-73.7L359.5-3"/>
			<path id="Path_2068" class="st41" d="M451.2,66.57L333.62-21.64l-34.88,34.88l-11.58,50.93"/>
			<path id="Path_2069" class="st42" d="M302.93,9.05l-60.44-60.49l-89.06,89.01l92.96,30.64l38.83,4.66L302.93,9.05"/>
			<path id="Path_2070" class="st40" d="M215.19,66.57l-86.33-86.28L60.85,48.3"/>
			<path id="Path_2071" class="st42" d="M338.93,77.72l81.24-81.24l81.2,81.24"/>
			<path id="Path_2072" class="st42" d="M415.52,88.78l-56.95-57L306.5,83.84"/>
			<path id="Path_2073" class="st42" d="M287.16,77.72l-57-57L178.1,72.78"/>
			<path id="Path_2074" class="st42" d="M101.56,7.54L55.39-38.64L15.66,1.09"/>
			<path id="Path_2075" d="M199.94,253.34L299.58,5.7l3.34,3.34l0,0l-20.57,244.29"/>
		</g>
	</g>
	<text transform="matrix(1 0 0 1 642.9731 650.0947)" class="st44 st45"> coördinaten </text>
	<text transform="matrix(1 0 0 1 588.2153 669.0947)" class="st44 st45"> xx.xxxxx, xx.xxxxx</text>
	<g id="Ellipse_2556" transform="translate(816 845)">
		<circle class="st46" cx="40.66" cy="-61.7" r="25"/>
		<circle class="st5" cx="40.66" cy="-61.7" r="24.5"/>
	</g>
	<text transform="matrix(1 0 0 1 441.269 405.2979)" class="st38 st47">!</text>
</g>
</svg>
