<?xml version="1.0" encoding="utf-8"?>
<!-- Generator: Adobe Illustrator 24.0.3, SVG Export Plug-In . SVG Version: 6.00 Build 0)  -->
<svg version="1.1" xmlns="http://www.w3.org/2000/svg" xmlns:xlink="http://www.w3.org/1999/xlink" x="0px" y="0px"
	 viewBox="0 0 346.54 483.13" style="enable-background:new 0 0 346.54 483.13;" xml:space="preserve">
<style type="text/css">
	.st0{fill:#FCC115;stroke:#666666;stroke-width:1.0078;stroke-miterlimit:10;}
	.st1{fill:#FCC115;stroke:#666666;stroke-miterlimit:10;}
	.st2{fill:#FCC115;stroke:#707070;}
	.st3{fill:none;stroke:#000000;stroke-width:7.0866;}
	.st4{fill:none;}
	.st5{fill:none;stroke:#707070;}
	.st6{fill:#FFFFFF;}
	.st7{fill:#FFFFFF;stroke:#707070;}
	.st8{stroke:#000000;stroke-width:2.8346;stroke-miterlimit:10;}
	.st9{clip-path:url(#SVGID_2_);}
	.st10{clip-path:url(#SVGID_4_);}
	.st11{enable-background:new    ;}
	.st12{stroke:#000000;stroke-miterlimit:10;}
	.st13{fill:#FFFFFF;stroke:#000000;stroke-width:1.0006;}
	.st14{fill:#707070;}
	.st15{clip-path:url(#Path_28-2_33_);}
	.st16{clip-path:url(#Path_28-2_67_);}
	.st17{clip-path:url(#Path_28-2_68_);}
	.st18{clip-path:url(#Path_28-2_69_);}
	.st19{clip-path:url(#Path_28-2_70_);}
	.st20{clip-path:url(#Path_28-2_71_);}
	.st21{clip-path:url(#Path_28-2_72_);}
	.st22{clip-path:url(#Path_28-2_73_);}
	.st23{clip-path:url(#Path_28-2_74_);}
	.st24{clip-path:url(#Path_28-2_75_);}
	.st25{clip-path:url(#Path_28-2_76_);}
	.st26{fill:#FFFFFF;stroke:#1A1818;stroke-width:1.0004;stroke-miterlimit:10.0042;}
	.st27{fill:#120303;}
	.st28{fill:#1A1818;}
	.st29{clip-path:url(#SVGID_6_);}
	.st30{clip-path:url(#SVGID_8_);}
	.st31{clip-path:url(#Path_28-2_77_);}
	.st32{clip-path:url(#Path_28-2_78_);}
	.st33{clip-path:url(#Path_28-2_79_);}
	.st34{clip-path:url(#Path_28-2_80_);}
	.st35{clip-path:url(#Path_28-2_81_);}
	.st36{clip-path:url(#Path_28-2_82_);}
	.st37{display:none;}
	.st38{fill:#FCBE08;}
	.st39{fill:#666666;}
	.st40{clip-path:url(#SVGID_10_);}
	.st41{fill:#FCBE08;stroke:#5F5655;stroke-width:0.471;}
	.st42{fill:none;stroke:#000000;stroke-width:0.471;stroke-miterlimit:10;}
	.st43{fill:#FFFFFF;stroke:#000000;stroke-width:0.471;stroke-miterlimit:10;}
	.st44{fill:none;stroke:#000000;stroke-miterlimit:10;}
</style>
<g id="Layer_1">
	<g>
		<g id="Path_28-2_62_">
			<polygon class="st6" points="14.97,126.39 346.01,0.74 334.05,266.68 0.54,482.18 			"/>
			<path class="st14" d="M345.47,1.48L333.56,266.4L1.08,481.24l14.38-354.5L345.47,1.48 M346.54,0L14.48,126.04L0,483.13
				l334.54-216.16L346.54,0L346.54,0z"/>
		</g>
		<g>
			<path class="st4" d="M173.98,175.29c7.6-2.92,10.04-16.81,4.84-30.37c-2.68-6.98-6-8.89-10.11-7.31
				c-3.18,1.22-6.49,5.2-9.03,10.54c2.5,12.35,4.33,22.02,5.01,25.65C168.09,175.9,171.31,176.32,173.98,175.29z"/>
			<path class="st4" d="M249.06,109.36c-1.03-2.67-2.93-3.94-5.39-3c-4.62,1.77-7.67,10.72-4.81,22.46
				C249.07,121.37,251.23,115.01,249.06,109.36z"/>
			<path class="st4" d="M213.73,122.92c-1.02-2.67-2.93-3.94-5.39-3c-4.62,1.77-7.67,10.72-4.81,22.46
				C213.75,134.93,215.9,128.57,213.73,122.92z"/>
			<path class="st4" d="M67.91,178.89c-1.03-2.67-2.93-3.94-5.39-3c-4.62,1.77-7.67,10.72-4.81,22.46
				C67.93,190.91,70.08,184.54,67.91,178.89z"/>
			<path class="st4" d="M106.59,305.44c-1.02-2.67-2.93-3.94-5.39-3c-4.62,1.77-7.67,10.72-4.81,22.46
				C106.6,317.45,108.76,311.09,106.59,305.44z"/>
			<path class="st4" d="M260.73,246.27c-1.02-2.67-2.93-3.94-5.39-3c-4.62,1.77-7.67,10.72-4.81,22.47
				C260.74,258.28,262.9,251.92,260.73,246.27z"/>
			<polygon class="st28" points="24.8,198.27 26.42,206.48 31.05,204.71 26.66,182.24 22.04,184.01 23.66,192.23 23.24,192.98 
				18,194.99 17.93,200.32 24.19,197.91 			"/>
			<polygon class="st28" points="18.39,166.8 22.28,165.3 32.7,175.56 33.21,175.36 29.44,157.25 18.46,161.47 			"/>
			<polygon class="st28" points="44.56,208.6 44.04,208.79 37.78,225.33 17.47,233.13 17.4,238.46 47.06,227.08 			"/>
			<path class="st28" d="M75.41,176.02c-1.85-4.83-6.71-6.73-12.36-4.56c-12.73,4.89-16.58,22.5-10.66,37.91
				c3.79,9.86,10.26,12.91,17.55,10.11c5.44-2.09,10.23-7.11,13.66-13.84l-1.03-1.14c-2.76,2.95-7.03,6.24-10.63,7.62
				c-5.34,2.05-9.29,0.03-12.41-8.08l-0.71-1.85C74.94,190.45,77.81,182.28,75.41,176.02z M57.71,198.36
				c-2.86-11.74,0.19-20.69,4.81-22.46c2.46-0.95,4.37,0.33,5.39,3C70.08,184.54,67.93,190.91,57.71,198.36z"/>
			<path class="st28" d="M94.5,208.87l7.19-2.76l-6.5-33.21c2.89-5.35,6.26-9.47,10.06-10.93c4.31-1.66,6.05,1.33,6.93,7l2.86,17.88
				c0.47,2.76,0.95,4.94,1.62,6.68c1.89,4.93,4.84,6.15,8.74,4.66c4-1.54,7.62-6.23,9.58-10.04l-1.03-1.14
				c-1.57,1.43-3.24,2.3-4.57,2.82c-3.7,1.42-6.28,0.53-7.31-6.15l-3.11-19.78c-1.33-8.68-6.4-11.45-12.05-9.28
				c-5.34,2.05-9.36,7.84-12.25,15.66l-2.25-9.86l-0.63-0.11l-11.73,11.81l0.15,1l7.41,0.57L94.5,208.87z"/>
			<path class="st28" d="M159.79,184.98l5.25-4.73c3.06,0.59,6.45,0.23,9.64-0.99c12.94-4.97,17.67-23.04,11.67-38.65
				c-3.55-9.24-9.42-12.88-15.99-10.36c-5.24,2.01-8.81,7.74-11.2,15.02c-4.08-21.06-8.31-42.53-8.31-42.53l-0.63-0.11l-11.93,11.88
				l0.15,1l7.3,0.61l13.54,69.03L159.79,184.98z M168.71,137.61c4.11-1.58,7.43,0.33,10.11,7.31c5.2,13.56,2.76,27.46-4.84,30.37
				c-2.67,1.03-5.89,0.61-9.29-1.5c-0.68-3.62-2.51-13.29-5.01-25.65C162.22,142.81,165.52,138.83,168.71,137.61z"/>
			<path class="st28" d="M221.23,120.04c-1.85-4.83-6.71-6.73-12.36-4.57c-12.73,4.89-16.58,22.51-10.66,37.91
				c3.78,9.86,10.26,12.91,17.55,10.11c5.44-2.09,10.23-7.11,13.66-13.84l-1.03-1.14c-2.76,2.94-7.03,6.23-10.63,7.62
				c-5.34,2.05-9.3,0.03-12.41-8.08l-0.71-1.85C220.76,134.48,223.63,126.3,221.23,120.04z M203.53,142.39
				c-2.86-11.75,0.19-20.69,4.81-22.46c2.46-0.95,4.37,0.33,5.39,3C215.9,128.57,213.75,134.93,203.53,142.39z"/>
			<path class="st28" d="M256.56,106.48c-1.85-4.83-6.71-6.73-12.36-4.57c-12.73,4.89-16.58,22.51-10.66,37.91
				c3.79,9.86,10.26,12.91,17.55,10.11c5.44-2.09,10.23-7.11,13.66-13.84l-1.03-1.14c-2.76,2.94-7.03,6.23-10.63,7.62
				c-5.34,2.05-9.29,0.03-12.41-8.08l-0.71-1.85C256.09,120.92,258.96,112.74,256.56,106.48z M238.86,128.83
				c-2.86-11.75,0.19-20.69,4.81-22.46c2.46-0.95,4.37,0.33,5.39,3C251.23,115.01,249.07,121.37,238.86,128.83z"/>
			<path class="st28" d="M285.08,88.11l-11.3,4.34l-2.8-14.36l-1.54,0.59L266.6,95.2l-5.57,5.44l0.36,1.86l6.16-2.37l5.24,26.86
				c1.66,8.32,3.76,13.17,9.92,10.8c4.93-1.89,9.7-7.26,12.91-13.32l-1.03-1.14c-2.47,2.48-5.11,4.79-7.99,5.89
				c-4.01,1.54-5.6,0.15-7.39-8.83l-4.48-23.02l11.3-4.34L285.08,88.11z"/>
			<path class="st28" d="M312.31,125.26l-8.88-45.84l-0.63-0.11l-12.04,11.93l0.15,1l7.41,0.57l7.11,36.63
				c2.23,11.63-0.08,17.59-6.51,24.18l1.1,1.94C311.07,148.12,315.2,140.17,312.31,125.26z"/>
			<path class="st28" d="M297.81,69.08c2.77-1.06,4.35-4.62,3.52-7.71c-0.98-3.16-4.22-4.86-7.1-3.76
				c-2.98,1.14-4.46,4.66-3.58,7.86C291.59,68.52,294.83,70.22,297.81,69.08z"/>
			<path class="st28" d="M328.89,100.63l-0.71-1.85c2.91-2.11,5.38-4.11,7.47-6l0.3-6.67c-1.72,2.78-4.58,5.72-8.88,8.86
				c-2.86-11.75,0.19-20.69,4.81-22.46c1.94-0.74,3.52-0.1,4.61,1.5l0.31-6.82c-1.37,0.01-2.85,0.29-4.38,0.88
				c-12.73,4.89-16.58,22.51-10.66,37.91c2.94,7.66,7.51,11.19,12.81,11.08l0.37-8.21C332.6,107.73,330.61,105.12,328.89,100.63z"/>
			<path class="st28" d="M42.48,332.4l6.9,35.17l7.19-2.76l-6.5-33.21c2.89-5.35,6.26-9.47,10.06-10.93c4.31-1.66,6.05,1.33,6.93,7
				l2.86,17.88c0.47,2.76,0.95,4.94,1.62,6.68c1.89,4.93,4.84,6.15,8.74,4.66c4-1.54,7.62-6.23,9.58-10.04l-1.03-1.14
				c-1.57,1.43-3.24,2.3-4.57,2.82c-3.7,1.42-6.28,0.53-7.31-6.15l-3.11-19.78c-1.33-8.68-6.4-11.45-12.05-9.28
				c-5.34,2.05-9.36,7.84-12.25,15.66l-2.25-9.86l-0.63-0.11l-11.73,11.81l0.15,1L42.48,332.4z"/>
			<path class="st28" d="M108.62,346.02c5.44-2.09,10.23-7.11,13.66-13.84l-1.03-1.14c-2.76,2.95-7.03,6.24-10.63,7.62
				c-5.34,2.05-9.3,0.03-12.41-8.08l-0.71-1.85c16.12-11.72,18.99-19.9,16.59-26.16c-1.85-4.83-6.71-6.73-12.36-4.57
				c-12.73,4.89-16.58,22.5-10.66,37.91C94.85,345.76,101.32,348.82,108.62,346.02z M101.2,302.44c2.46-0.95,4.37,0.33,5.39,3
				c2.17,5.65,0.02,12.01-10.2,19.47C93.53,313.16,96.58,304.21,101.2,302.44z"/>
			<path class="st28" d="M130.32,323.07c1.66,8.32,3.76,13.17,9.92,10.8c4.93-1.89,9.7-7.26,12.91-13.32l-1.03-1.14
				c-2.47,2.48-5.11,4.79-7.99,5.89c-4,1.54-5.6,0.15-7.39-8.83l-4.48-23.02l11.3-4.34l-0.95-4.94l-11.3,4.34l-2.8-14.36l-1.54,0.59
				l-2.85,16.53l-5.57,5.44l0.36,1.86l6.16-2.37L130.32,323.07z"/>
			<path class="st28" d="M189.52,271.01c4.31-1.66,6.05,1.33,6.93,7l2.86,17.87c0.47,2.76,0.95,4.94,1.62,6.68
				c1.89,4.93,4.84,6.15,8.74,4.66c4-1.54,7.62-6.23,9.58-10.04l-1.03-1.14c-1.57,1.43-3.24,2.3-4.57,2.82
				c-3.7,1.42-6.28,0.52-7.31-6.15l-3.11-19.78c-1.33-8.68-6.4-11.45-12.05-9.28c-5.34,2.05-9.36,7.84-12.25,15.66l-2.25-9.86
				l-0.63-0.11l-11.73,11.81l0.15,1l7.41,0.57l6.9,35.17l7.19-2.76l-6.5-33.21C182.35,276.59,185.72,272.47,189.52,271.01z"/>
			<path class="st28" d="M215.84,229.09c-2.98,1.14-4.46,4.66-3.58,7.86c0.94,3.06,4.18,4.76,7.16,3.61
				c2.77-1.06,4.35-4.62,3.52-7.71C221.96,229.69,218.72,227.99,215.84,229.09z"/>
			<path class="st28" d="M224.25,286.31c0.43,2.66,1.06,4.9,1.73,6.64c1.85,4.83,4.53,6.27,8.64,4.7c3.9-1.5,7.52-6.19,9.37-9.96
				l-1.03-1.14c-1.47,1.39-3.14,2.26-4.58,2.82c-3.18,1.22-4.99,0.5-6.21-2.68c-0.43-1.13-0.84-2.5-1.13-4.16l-5.71-31.74
				l-0.63-0.11l-12.04,11.93l0.25,0.96l7.3,0.61L224.25,286.31z"/>
			<path class="st28" d="M262.76,286.85c5.44-2.09,10.23-7.11,13.66-13.84l-1.03-1.14c-2.76,2.94-7.03,6.23-10.63,7.61
				c-5.34,2.05-9.3,0.03-12.41-8.08l-0.71-1.85c16.12-11.72,18.99-19.9,16.59-26.16c-1.85-4.83-6.71-6.73-12.36-4.57
				c-12.73,4.89-16.58,22.51-10.66,37.91C248.99,286.59,255.46,289.65,262.76,286.85z M255.34,243.27c2.46-0.95,4.37,0.33,5.39,3
				c2.17,5.65,0.02,12.01-10.2,19.47C247.67,253.99,250.71,245.05,255.34,243.27z"/>
			<path class="st28" d="M284.46,263.9c1.66,8.32,3.76,13.17,9.92,10.8c4.93-1.89,9.7-7.26,12.91-13.32l-1.03-1.14
				c-2.47,2.48-5.11,4.79-7.99,5.89c-4.01,1.54-5.6,0.15-7.39-8.83l-4.48-23.03l11.3-4.34l-0.95-4.94l-11.3,4.34l-2.8-14.36
				l-1.54,0.59l-2.85,16.53l-5.57,5.44l0.36,1.86l6.16-2.37L284.46,263.9z"/>
			<path class="st28" d="M314.66,261.86c1.1,2.88,3.74,4.22,6.51,3.16c3.7-1.42,5.05-6.18,3.71-9.67c-1.06-2.77-3.7-4.12-6.47-3.05
				C314.72,253.7,313.32,258.36,314.66,261.86z"/>
		</g>
	</g>
</g>
<g id="Layer_4">
</g>
<g id="Layer_2" class="st37">
</g>
<g id="Layer_3">
</g>
</svg>
