<svg data-name="Layer 1" xmlns="http://www.w3.org/2000/svg" viewBox="0 0 338.08 403.85"><g data-name="Layer 1"><path data-name="Path 28-2" d="M337.54.74L324 233.02l-323 170-.5-273z" fill="#fff" stroke="#707070"/><path data-name="Path 28-2" d="M337.54.74L324 233.02l-323 170-.5-273z" fill="#fff" stroke="#707070"/><path d="M200.16 116.97c-1.34-2.53-3.38-3.56-5.71-2.33-4.38 2.31-6.33 11.56-2.08 22.88 9.27-8.63 10.65-15.2 7.79-20.55zM317.16 55.09c-1.34-2.53-3.38-3.56-5.71-2.33-4.38 2.31-6.33 11.56-2.08 22.88 9.24-8.63 10.62-15.2 7.79-20.55zM233.64 99.27c-1.34-2.53-3.38-3.53-5.71-2.33-4.38 2.31-6.33 11.56-2.08 22.88 9.24-8.62 10.62-15.2 7.79-20.55zM115.68 311.01c-1.34-2.53-3.38-3.56-5.71-2.33-4.38 2.31-6.33 11.56-2.08 22.88 9.27-8.63 10.62-15.2 7.79-20.55zM62.16 190.01c-1.34-2.53-3.38-3.56-5.71-2.33-4.38 2.31-6.33 11.56-2.08 22.88 9.21-8.63 10.58-15.2 7.79-20.55zM261.62 233.8c-1.34-2.53-3.38-3.56-5.71-2.33-4.38 2.31-6.33 11.56-2.08 22.88 9.25-8.61 10.62-15.2 7.79-20.55zM167 173.74c7.19-3.81 7.95-17.9 1.16-30.73-3.5-6.61-7-8.11-10.92-6-3 1.59-5.82 5.94-7.71 11.54 4 12 6.94 21.34 8 24.86 3.69 1.63 6.94 1.66 9.47.33z" fill="none"/><path d="M.26 189.89l14.93-7.91 11.58 8.94.48-.26-5.91-17.53L.16 184.34l.1 5.55zM42.49 222.3l-.48.25-4.23 17.18-20.23 10.7-9.48-29.46L21 214.13l.65.28 2.59 7.96 4.38-2.31-7.05-21.79-4.37 2.32 2.59 7.96-.33.79-12.93 6.84-6.15-19.06.53 30.13 8.61 26.8-.33.8-6.81 3.6 1.54 4.79 43.27-22.89-4.7-18.05zM69.22 186.25c-2.42-4.57-7.47-5.88-12.81-3-12.06 6.38-13.76 24.33-6 38.91 4.94 9.33 11.73 11.59 18.63 7.94 5.15-2.73 9.31-8.28 11.9-15.38l-1.16-1c-2.39 3.25-6.24 7-9.64 8.83-5.06 2.68-9.22 1.15-13.29-6.53l-.93-1.75c14.57-13.63 16.44-22.08 13.3-28.02zm-14.89 24.31c-4.25-11.32-2.29-20.56 2.08-22.88 2.33-1.23 4.37-.2 5.71 2.33 2.83 5.35 1.46 11.92-7.79 20.55zM97.16 168.74c4.08-2.16 6.16.6 7.72 6.12l5 17.4a36.34 36.34 0 002.41 6.44c2.47 4.67 5.54 5.53 9.23 3.58s6.82-7.09 8.31-11.11l-1.15-1a14.48 14.48 0 01-4.2 3.34c-3.5 1.85-6.17 1.27-8-5.23l-5.46-19.26c-2.36-8.46-7.72-10.6-13.07-7.77-5.06 2.67-8.36 8.9-10.29 17l-3.44-9.51h-.64l-10.23 13.1.27 1 7.42-.32 11.12 34.07 6.81-3.6-10.48-32.19c2.23-5.67 5.07-10.16 8.67-12.06zM153.59 185.3l.49-.26 4.65-5.32a17.76 17.76 0 009.45-2.14c12.25-6.48 14.78-25 7-39.77-4.63-8.75-10.9-11.66-17.12-8.37-5 2.62-7.82 8.74-9.32 16.26-6.57-20.42-13.35-41.22-13.35-41.22h-.64l-10.42 13.23.27 1 7.33-.27zm3.66-48.35c3.89-2.06 7.42-.56 10.92 6 6.79 12.83 6 26.93-1.16 30.73-2.53 1.34-5.78 1.31-9.41-.37-1.11-3.52-4.09-12.9-8.05-24.86 1.88-5.56 4.69-9.91 7.7-11.5zM207.29 113.21c-2.42-4.57-7.47-5.88-12.81-3-12.06 6.38-13.76 24.33-6 38.91 4.94 9.33 11.73 11.59 18.63 7.94 5.15-2.73 9.31-8.28 11.9-15.38l-1.16-1c-2.39 3.25-6.23 7-9.64 8.83-5.06 2.68-9.23 1.15-13.29-6.53l-.93-1.75c14.56-13.63 16.44-22.08 13.3-28.02zm-14.9 24.31c-4.25-11.32-2.29-20.56 2.08-22.88 2.33-1.23 4.38-.2 5.71 2.33 2.84 5.35 1.46 11.92-7.79 20.55zM240.51 139.32c5.15-2.73 9.31-8.28 11.9-15.38l-1.16-1c-2.39 3.25-6.24 7-9.64 8.83-5.06 2.68-9.23 1.15-13.29-6.53l-.93-1.75c14.6-13.57 16.47-22 13.33-28-2.42-4.57-7.47-5.88-12.81-3-12.06 6.38-13.76 24.33-6 38.91 4.9 9.34 11.7 11.57 18.6 7.92zm-12.59-42.37c2.33-1.23 4.37-.2 5.71 2.33 2.83 5.35 1.46 11.92-7.79 20.55-4.24-11.32-2.29-20.57 2.08-22.88zM270.46 123.48c4.67-2.47 8.76-8.37 11.22-14.77l-1.15-1c-2.15 2.76-4.5 5.37-7.23 6.81-3.79 2-5.54.82-8.4-7.88l-7.21-22.32 10.7-5.66-1.54-4.79-10.69 5.65-4.5-13.92-1.46.77-.85 16.75-4.88 6.07.58 1.81 5.83-3.09 8.42 26c2.66 8.09 5.32 12.65 11.16 9.57zM277.21 53.45c2.62-1.39 3.77-5.11 2.57-8.08a5.49 5.49 0 00-7.5-2.88 6.51 6.51 0 00-2.61 8.25 5.47 5.47 0 007.54 2.71z"/><path d="M289.76 139.03c10.08-8.7 13.24-17.08 8.58-31.54l-14.31-44.45h-.64l-10.52 13.25.27 1 7.42-.32L292 112.48c3.61 11.28 2 17.47-3.56 24.78zM325.16 87.58c-5.06 2.68-9.22 1.15-13.29-6.53l-.93-1.75c14.6-13.57 16.47-22 13.33-28-2.42-4.57-7.47-5.88-12.81-3.05-12.06 6.38-13.76 24.33-6 38.91 4.94 9.33 11.73 11.59 18.63 7.94a21 21 0 006.21-5.18l.26-6.41a25.92 25.92 0 01-5.4 4.07zm-15.8-11.94c-4.2-11.32-2.29-20.56 2.08-22.9 2.33-1.23 4.37-.2 5.71 2.33 2.84 5.37 1.46 11.94-7.79 20.57zM90.68 351.24l-5.46-19.26c-2.36-8.46-7.72-10.6-13.07-7.77-5.06 2.67-8.36 8.9-10.29 17l-3.42-9.47h-.64l-10.23 13.07.27 1 7.42-.32 9 27.85 6.77-3.72-8.33-25.88c2.23-5.66 5.08-10.15 8.68-12.06 4.08-2.16 6.16.6 7.72 6.12l5 17.4a38.79 38.79 0 002.2 6l7.75-4.26c-1.35-.69-2.47-2.46-3.37-5.7zM133.81 335.12l-.51-.45c-.31.42-.64.84-1 1.27zM110.37 336.97l-.93-1.75c14.6-13.57 16.47-22 13.33-28-2.42-4.57-7.47-5.88-12.81-3-12.06 6.38-13.76 24.33-6 38.91a23.48 23.48 0 004.38 6l8.81-4.84c-2.4-.88-4.6-3.21-6.78-7.32zm-2.48-5.41c-4.25-11.32-2.29-20.56 2.08-22.88 2.33-1.23 4.38-.2 5.71 2.33 2.83 5.35 1.48 11.92-7.79 20.55zM146.95 318.36l-7.21-22.32 10.7-5.66-1.54-4.79-10.74 5.66-4.5-13.92-1.46.77-.85 16.75-4.88 6.07.58 1.81 5.83-3.09 8.42 26q.8 2.43 1.63 4.4l7.48-4.11c-1.09-1.19-2.16-3.61-3.46-7.57zM213.16 286.43l-5.46-19.26c-2.36-8.46-7.72-10.6-13.07-7.77-5.06 2.67-8.36 8.9-10.29 17l-3.42-9.52h-.64l-10.23 13.13.27 1 7.42-.32 8.42 25.69 6.77-3.72-7.77-23.69c2.23-5.66 5.08-10.15 8.68-12.06 4.08-2.16 6.16.6 7.72 6.12l5 17.4c.45 1.51.88 2.81 1.32 4l7-3.85a15 15 0 01-1.72-4.15zM238.16 277.35a21.61 21.61 0 01-1.62-4l-9.47-30.83h-.64l-10.56 13.22.37.93 7.33-.27 6.64 21.5a35.76 35.76 0 001.21 3.55l6.89-3.79c-.06-.08-.15-.19-.15-.31zM219.93 233.09c2.62-1.39 3.77-5.11 2.57-8.08a5.49 5.49 0 00-7.5-2.88 6.52 6.52 0 00-2.62 8.23 5.48 5.48 0 007.55 2.73zM256.31 259.74l-.93-1.75c14.6-13.57 16.47-22 13.33-28-2.42-4.57-7.47-5.88-12.81-3.05-12.06 6.38-13.76 24.33-6 38.91a27 27 0 002.58 4l8.06-4.43a20.26 20.26 0 01-4.23-5.68zm-.4-28.29c2.33-1.23 4.37-.2 5.71 2.33 2.83 5.35 1.45 11.92-7.79 20.55-4.25-11.3-2.29-20.54 2.08-22.86zM292.89 241.16l-7.21-22.32 10.7-5.66-1.54-4.79-10.68 5.66-4.5-13.92-1.46.77-.85 16.75-4.9 6.09.58 1.81 5.83-3.09 8.42 26c.22.67.44 1.31.67 1.93l7-3.86a44.24 44.24 0 01-2.06-5.37z"/></g></svg>