<svg data-name="Layer 1" xmlns="http://www.w3.org/2000/svg" viewBox="0 0 338.08 403.85"><g data-name="Layer 1"><path data-name="Path 28-2" d="M337.5.74L324 233.02l-323 170-.5-273z" fill="#fff" stroke="#707070"/><path data-name="Path 28-2" d="M337.5.74L324 233.02l-323 170-.5-273z" fill="#fff" stroke="#707070"/><path d="M167 173.74c7.19-3.81 7.95-17.9 1.16-30.73-3.5-6.61-7-8.11-10.92-6-3 1.59-5.82 5.94-7.71 11.54 4 12 6.94 21.34 8.05 24.86 3.65 1.63 6.92 1.66 9.42.33zM62.13 190.01c-1.34-2.53-3.38-3.56-5.71-2.33-4.38 2.31-6.33 11.56-2.08 22.88 9.24-8.63 10.62-15.2 7.79-20.55zM200.19 116.97c-1.34-2.53-3.38-3.56-5.71-2.33-4.38 2.31-6.33 11.56-2.08 22.88 9.25-8.63 10.62-15.2 7.79-20.55zM115.69 311.01c-1.34-2.53-3.38-3.56-5.71-2.33-4.38 2.31-6.33 11.56-2.08 22.88 9.24-8.63 10.6-15.2 7.79-20.55zM261.63 233.8c-1.34-2.53-3.38-3.56-5.71-2.33-4.38 2.31-6.33 11.56-2.08 22.88 9.24-8.61 10.66-15.2 7.79-20.55zM317.16 55.09c-1.34-2.53-3.38-3.56-5.71-2.33-4.38 2.31-6.33 11.56-2.08 22.88 9.25-8.63 10.62-15.2 7.79-20.55zM233.64 99.27c-1.34-2.53-3.38-3.53-5.71-2.33-4.38 2.31-6.33 11.56-2.08 22.88 9.25-8.62 10.65-15.2 7.79-20.55z" fill="none"/><path d="M.5 189.76l14.7-7.78 11.57 8.94.49-.26-5.92-17.53L.5 184.16v5.6zM2.39 258.45l1.54 4.79 43.26-22.89-4.69-18.05-.49.25-4.23 17.18-20.22 10.7-9.49-29.46L21 214.13l.65.28 2.59 7.96 4.38-2.31-7.04-21.79-4.38 2.32 2.59 7.96-.32.79-12.93 6.84L.5 197.47v28.49l9.02 28.09-.33.8-6.8 3.6zM69.23 186.25c-2.42-4.57-7.47-5.88-12.81-3-12.06 6.38-13.76 24.33-6 38.91 4.94 9.33 11.73 11.59 18.63 7.94 5.15-2.73 9.31-8.28 11.9-15.38l-1.16-1c-2.39 3.25-6.24 7-9.64 8.83-5.06 2.68-9.22 1.15-13.29-6.53l-.93-1.75c14.57-13.63 16.44-22.08 13.3-28.02zm-14.9 24.31c-4.25-11.32-2.29-20.56 2.08-22.88 2.33-1.23 4.37-.2 5.71 2.33 2.84 5.35 1.46 11.92-7.79 20.55zM97.17 168.74c4.08-2.16 6.16.6 7.72 6.12l5 17.4a36.34 36.34 0 002.41 6.44c2.47 4.67 5.54 5.53 9.23 3.58s6.82-7.09 8.31-11.11l-1.15-1a14.48 14.48 0 01-4.2 3.34c-3.5 1.85-6.17 1.27-8-5.23l-5.46-19.26c-2.36-8.46-7.72-10.6-13.07-7.77-5.06 2.67-8.36 8.9-10.29 17l-3.44-9.51h-.64l-10.23 13.1.27 1 7.42-.32 11.07 34.09 6.81-3.6L88.5 180.8c2.22-5.67 5.07-10.16 8.67-12.06zM153.59 185.3l.49-.26 4.65-5.32a17.76 17.76 0 009.45-2.14c12.25-6.48 14.78-25 7-39.77-4.63-8.75-10.9-11.66-17.12-8.37-5 2.62-7.82 8.74-9.32 16.26-6.57-20.42-13.35-41.22-13.35-41.22h-.64l-10.42 13.23.27 1 7.33-.27zm3.66-48.35c3.89-2.06 7.42-.56 10.92 6 6.79 12.83 6 26.93-1.16 30.73-2.53 1.34-5.78 1.31-9.41-.37-1.11-3.52-4.09-12.9-8-24.86 1.84-5.56 4.64-9.91 7.65-11.5zM207.29 113.21c-2.42-4.57-7.47-5.88-12.81-3-12.06 6.38-13.76 24.33-6 38.91 4.94 9.33 11.73 11.59 18.63 7.94 5.15-2.73 9.31-8.28 11.9-15.38l-1.16-1c-2.39 3.25-6.23 7-9.64 8.83-5.06 2.68-9.23 1.15-13.29-6.53l-.93-1.75c14.57-13.63 16.44-22.08 13.3-28.02zm-14.89 24.31c-4.25-11.32-2.29-20.56 2.08-22.88 2.33-1.23 4.38-.2 5.71 2.33 2.83 5.35 1.46 11.92-7.79 20.55zM240.5 139.32c5.15-2.73 9.31-8.28 11.9-15.38l-1.16-1c-2.39 3.25-6.24 7-9.64 8.83-5.06 2.68-9.23 1.15-13.29-6.53l-.93-1.75c14.6-13.57 16.47-22 13.33-28-2.42-4.57-7.47-5.88-12.81-3-12.06 6.38-13.76 24.33-6 38.91 4.92 9.34 11.71 11.57 18.6 7.92zm-12.57-42.37c2.33-1.23 4.37-.2 5.71 2.33 2.83 5.35 1.46 11.92-7.79 20.55-4.25-11.32-2.3-20.57 2.08-22.88zM270.5 123.48c4.67-2.47 8.76-8.37 11.22-14.77l-1.22-.97c-2.15 2.76-4.5 5.37-7.23 6.81-3.79 2-5.54.82-8.4-7.88l-7.21-22.32 10.7-5.66-1.54-4.79-10.7 5.66-4.5-13.92-1.46.77-.85 16.75-4.81 6.03.58 1.81 5.83-3.09 8.42 26c2.63 8.09 5.3 12.65 11.17 9.57zM277.22 53.45c2.62-1.39 3.77-5.11 2.57-8.08a5.49 5.49 0 00-7.5-2.88 6.51 6.51 0 00-2.61 8.25 5.47 5.47 0 007.54 2.71z"/><path d="M289.76 139.03c10.08-8.7 13.24-17.08 8.58-31.54l-14.31-44.45h-.64l-10.52 13.25.27 1 7.42-.32L292 112.48c3.61 11.28 2 17.47-3.56 24.78zM325.14 87.58c-5.06 2.68-9.22 1.15-13.29-6.53l-.93-1.75c14.6-13.57 16.47-22 13.33-28-2.42-4.57-7.47-5.88-12.81-3.05-12.06 6.38-13.76 24.33-6 38.91 4.94 9.33 11.73 11.59 18.63 7.94a23 23 0 008.43-8.3l.33-5.68a30 30 0 01-7.69 6.46zm-15.77-11.94c-4.25-11.32-2.29-20.56 2.13-22.9 2.33-1.23 4.37-.2 5.71 2.33 2.78 5.37 1.41 11.94-7.84 20.57zM90.68 351.24l-5.46-19.26c-2.36-8.46-7.72-10.6-13.07-7.77-5.06 2.67-8.36 8.9-10.29 17l-3.42-9.47h-.64l-10.23 13.07.27 1 7.42-.32 8.09 24.93 6.81-3.59-7.47-23c2.23-5.66 5.08-10.15 8.68-12.06 4.08-2.16 6.16.6 7.72 6.12l5 17.4c.4 1.35.79 2.55 1.18 3.62l7-3.69a15.59 15.59 0 01-1.59-3.98zM110.38 336.97l-.93-1.75c14.6-13.57 16.47-22 13.33-28-2.42-4.57-7.47-5.88-12.81-3-12.06 6.38-13.76 24.33-6 38.91a26.68 26.68 0 002.87 4.39l8.28-4.36a18.81 18.81 0 01-4.74-6.19zm-.41-28.29c2.33-1.23 4.38-.2 5.71 2.33 2.83 5.35 1.46 11.92-7.79 20.55-4.24-11.32-2.29-20.56 2.08-22.88zM146.95 318.36l-7.21-22.32 10.7-5.66-1.54-4.79-10.7 5.66-4.5-13.92-1.46.77-.85 16.75-4.89 6.07.58 1.81 5.83-3.09 8.42 26c.36 1.08.71 2.1 1.08 3l7.24-3.82a33.23 33.23 0 01-2.7-6.46zM213.19 286.43l-5.46-19.26c-2.36-8.46-7.72-10.6-13.07-7.77-5.06 2.67-8.36 8.9-10.29 17l-3.42-9.52h-.64l-10.23 13.13.27 1 7.42-.32 8.16 25.14 6.81-3.59-7.53-23.24c2.23-5.66 5.08-10.15 8.68-12.06 4.08-2.16 6.16.6 7.72 6.12l5 17.4c.43 1.44.84 2.7 1.26 3.82l7.05-3.71a14.75 14.75 0 01-1.73-4.14zM219.93 233.09c2.62-1.39 3.77-5.11 2.57-8.08a5.49 5.49 0 00-7.5-2.88 6.52 6.52 0 00-2.62 8.23 5.48 5.48 0 007.55 2.73zM238.12 277.35a21.61 21.61 0 01-1.62-4l-9.47-30.83h-.64l-10.52 13.22.37.93 7.33-.27 6.64 21.5a36.84 36.84 0 001.29 3.84l7-3.69c-.1-.21-.24-.44-.38-.7zM256.32 259.74l-.93-1.75c14.6-13.57 16.47-22 13.33-28-2.42-4.57-7.47-5.88-12.81-3.05-12.06 6.38-13.76 24.33-6 38.91a26.46 26.46 0 003 4.59l8.35-4.4a18.23 18.23 0 01-4.94-6.3zm-.4-28.29c2.33-1.23 4.37-.2 5.71 2.33 2.83 5.35 1.45 11.92-7.79 20.55-4.25-11.3-2.34-20.54 2.08-22.86zM292.89 241.16l-7.21-22.32 10.7-5.66-1.54-4.79-10.7 5.66-4.5-13.92-1.46.77-.85 16.75-4.83 6.09.58 1.81 5.83-3.09 8.42 26a60.7 60.7 0 001.17 3.28l7.28-3.84a32.4 32.4 0 01-2.89-6.74z"/></g></svg>