<svg id="ab8b7b09-2127-4d1c-ab9f-18f4af677ee7" data-name="Layer 1" xmlns="http://www.w3.org/2000/svg" viewBox="0 0 395 501"><title>20200121-brave-new-world</title><rect x="0.5" y="0.5" width="49" height="88" fill="#fff"/><path d="M49,1V88H1V1H49m1-1H0V89H50V0Z" fill="#707070"/><rect x="69.5" y="0.5" width="49" height="88" fill="#fff"/><path d="M118,1V88H70V1h48m1-1H69V89h50V0Z" fill="#707070"/><rect x="138.5" y="0.5" width="49" height="88" fill="#fff"/><path d="M187,1V88H139V1h48m1-1H138V89h50V0Z" fill="#707070"/><rect x="207.5" y="0.5" width="49" height="88" fill="#fff"/><path d="M256,1V88H208V1h48m1-1H207V89h50V0Z" fill="#707070"/><rect x="276.5" y="0.5" width="49" height="88" fill="#fff"/><path d="M325,1V88H277V1h48m1-1H276V89h50V0Z" fill="#707070"/><rect x="345.5" y="0.5" width="49" height="88" fill="#fff"/><path d="M394,1V88H346V1h48m1-1H345V89h50V0Z" fill="#707070"/><rect x="0.5" y="103.5" width="49" height="88" fill="#fff"/><path d="M49,104v87H1V104H49m1-1H0v89H50V103Z" fill="#707070"/><rect x="69.5" y="103.5" width="49" height="88" fill="#fff"/><path d="M118,104v87H70V104h48m1-1H69v89h50V103Z" fill="#707070"/><rect x="138.5" y="103.5" width="49" height="88" fill="#fff"/><path d="M187,104v87H139V104h48m1-1H138v89h50V103Z" fill="#707070"/><rect x="207.5" y="103.5" width="49" height="88" fill="#fff"/><path d="M256,104v87H208V104h48m1-1H207v89h50V103Z" fill="#707070"/><rect x="276.5" y="103.5" width="49" height="88" fill="#fff"/><path d="M325,104v87H277V104h48m1-1H276v89h50V103Z" fill="#707070"/><rect x="345.5" y="103.5" width="49" height="88" fill="#fff"/><path d="M394,104v87H346V104h48m1-1H345v89h50V103Z" fill="#707070"/><rect x="0.5" y="206.5" width="49" height="88" fill="#fff"/><path d="M49,207v87H1V207H49m1-1H0v89H50V206Z" fill="#707070"/><rect x="69.5" y="206.5" width="49" height="88" fill="#fff"/><path d="M118,207v87H70V207h48m1-1H69v89h50V206Z" fill="#707070"/><rect x="138.5" y="206.5" width="49" height="88" fill="#fff"/><path d="M187,207v87H139V207h48m1-1H138v89h50V206Z" fill="#707070"/><rect x="207.5" y="206.5" width="49" height="88" transform="translate(-11.87 11.54) rotate(-2.78)" fill="#fff"/><path d="M253.86,205.89l4.22,86.9-47.94,2.32-4.22-86.9,47.94-2.32m.95-1-49.94,2.42,4.32,88.9,49.94-2.42-4.32-88.9Z" fill="#707070"/><rect x="276.5" y="206.5" width="49" height="88" fill="#fff"/><path d="M325,207v87H277V207h48m1-1H276v89h50V206Z" fill="#707070"/><rect x="345.5" y="206.5" width="49" height="88" fill="#fff"/><path d="M394,207v87H346V207h48m1-1H345v89h50V206Z" fill="#707070"/><rect x="0.5" y="309.5" width="49" height="88" fill="#fff"/><path d="M49,310v87H1V310H49m1-1H0v89H50V309Z" fill="#707070"/><rect x="69.5" y="309.5" width="49" height="88" fill="#fff"/><path d="M118,310v87H70V310h48m1-1H69v89h50V309Z" fill="#707070"/><rect x="138.5" y="309.5" width="49" height="88" fill="#fff"/><path d="M187,310v87H139V310h48m1-1H138v89h50V309Z" fill="#707070"/><rect x="207.5" y="309.5" width="49" height="88" fill="#fff"/><path d="M256,310v87H208V310h48m1-1H207v89h50V309Z" fill="#707070"/><rect x="276.5" y="309.5" width="49" height="88" fill="#fff"/><path d="M325,310v87H277V310h48m1-1H276v89h50V309Z" fill="#707070"/><rect x="345.5" y="309.5" width="49" height="88" fill="#fff"/><path d="M394,310v87H346V310h48m1-1H345v89h50V309Z" fill="#707070"/><rect x="0.5" y="412.5" width="49" height="88" fill="#fff"/><path d="M49,413v87H1V413H49m1-1H0v89H50V412Z" fill="#707070"/><rect x="69.5" y="412.5" width="49" height="88" fill="#fff"/><path d="M118,413v87H70V413h48m1-1H69v89h50V412Z" fill="#707070"/><rect x="138.5" y="412.5" width="49" height="88" fill="#fff"/><path d="M187,413v87H139V413h48m1-1H138v89h50V412Z" fill="#707070"/><rect x="207.5" y="412.5" width="49" height="88" fill="#fff"/><path d="M256,413v87H208V413h48m1-1H207v89h50V412Z" fill="#707070"/><rect x="276.5" y="412.5" width="49" height="88" fill="#fff"/><path d="M325,413v87H277V413h48m1-1H276v89h50V412Z" fill="#707070"/><rect x="345.5" y="412.5" width="49" height="88" fill="#fff"/><path d="M394,413v87H346V413h48m1-1H345v89h50V412Z" fill="#707070"/></svg>