<svg id="b38192bc-598e-406d-a6c5-f68b696268c8" data-name="ab8b7b09-2127-4d1c-ab9f-18f4af677ee7" xmlns="http://www.w3.org/2000/svg" viewBox="0 0 395.28 501.28"><title>bricks-1</title><rect x="0.64" y="0.64" width="49" height="88" fill="#fff" stroke="#000" stroke-miterlimit="10" stroke-width="0.28"/><path d="M49,1V88H1V1H49m1-1H0V89H50Z" transform="translate(0.14 0.14)" fill="#707070" stroke="#000" stroke-miterlimit="10" stroke-width="0.28"/><rect x="69.64" y="0.64" width="49" height="88" fill="#fff" stroke="#000" stroke-miterlimit="10" stroke-width="0.28"/><path d="M118,1V88H70V1h48m1-1H69V89h50Z" transform="translate(0.14 0.14)" fill="#707070" stroke="#000" stroke-miterlimit="10" stroke-width="0.28"/><rect x="138.64" y="0.64" width="49" height="88" fill="#fff" stroke="#000" stroke-miterlimit="10" stroke-width="0.28"/><path d="M187,1V88H139V1h48m1-1H138V89h50Z" transform="translate(0.14 0.14)" fill="#707070" stroke="#000" stroke-miterlimit="10" stroke-width="0.28"/><rect x="207.64" y="0.64" width="49" height="88" fill="#fff" stroke="#000" stroke-miterlimit="10" stroke-width="0.28"/><path d="M256,1V88H208V1h48m1-1H207V89h50Z" transform="translate(0.14 0.14)" fill="#707070" stroke="#000" stroke-miterlimit="10" stroke-width="0.28"/><rect x="276.64" y="0.64" width="49" height="88" fill="#fff" stroke="#000" stroke-miterlimit="10" stroke-width="0.28"/><path d="M325,1V88H277V1h48m1-1H276V89h50Z" transform="translate(0.14 0.14)" fill="#707070" stroke="#000" stroke-miterlimit="10" stroke-width="0.28"/><rect x="345.64" y="0.64" width="49" height="88" fill="#fff" stroke="#000" stroke-miterlimit="10" stroke-width="0.28"/><path d="M394,1V88H346V1h48m1-1H345V89h50Z" transform="translate(0.14 0.14)" fill="#707070" stroke="#000" stroke-miterlimit="10" stroke-width="0.28"/><rect x="0.64" y="103.64" width="49" height="88" fill="#fff" stroke="#000" stroke-miterlimit="10" stroke-width="0.28"/><path d="M49,104v87H1V104H49m1-1H0v89H50Z" transform="translate(0.14 0.14)" fill="#707070" stroke="#000" stroke-miterlimit="10" stroke-width="0.28"/><rect x="69.64" y="103.64" width="49" height="88" fill="#fff" stroke="#000" stroke-miterlimit="10" stroke-width="0.28"/><path d="M118,104v87H70V104h48m1-1H69v89h50Z" transform="translate(0.14 0.14)" fill="#707070" stroke="#000" stroke-miterlimit="10" stroke-width="0.28"/><rect x="138.64" y="103.64" width="49" height="88" fill="#fff" stroke="#000" stroke-miterlimit="10" stroke-width="0.28"/><path d="M187,104v87H139V104h48m1-1H138v89h50Z" transform="translate(0.14 0.14)" fill="#707070" stroke="#000" stroke-miterlimit="10" stroke-width="0.28"/><rect x="207.64" y="103.64" width="49" height="88" fill="#fff" stroke="#000" stroke-miterlimit="10" stroke-width="0.28"/><path d="M256,104v87H208V104h48m1-1H207v89h50Z" transform="translate(0.14 0.14)" fill="#707070" stroke="#000" stroke-miterlimit="10" stroke-width="0.28"/><rect x="276.64" y="103.64" width="49" height="88" fill="#fff" stroke="#000" stroke-miterlimit="10" stroke-width="0.28"/><path d="M325,104v87H277V104h48m1-1H276v89h50Z" transform="translate(0.14 0.14)" fill="#707070" stroke="#000" stroke-miterlimit="10" stroke-width="0.28"/><rect x="345.64" y="103.64" width="49" height="88" fill="#fff" stroke="#000" stroke-miterlimit="10" stroke-width="0.28"/><path d="M394,104v87H346V104h48m1-1H345v89h50Z" transform="translate(0.14 0.14)" fill="#707070" stroke="#000" stroke-miterlimit="10" stroke-width="0.28"/><rect x="0.64" y="206.64" width="49" height="88" fill="#fff" stroke="#000" stroke-miterlimit="10" stroke-width="0.28"/><path d="M49,207v87H1V207H49m1-1H0v89H50Z" transform="translate(0.14 0.14)" fill="#707070" stroke="#000" stroke-miterlimit="10" stroke-width="0.28"/><rect x="69.64" y="206.64" width="49" height="88" fill="#fff" stroke="#000" stroke-miterlimit="10" stroke-width="0.28"/><path d="M118,207v87H70V207h48m1-1H69v89h50Z" transform="translate(0.14 0.14)" fill="#707070" stroke="#000" stroke-miterlimit="10" stroke-width="0.28"/><rect x="138.64" y="206.64" width="49" height="88" fill="#fff" stroke="#000" stroke-miterlimit="10" stroke-width="0.28"/><path d="M187,207v87H139V207h48m1-1H138v89h50Z" transform="translate(0.14 0.14)" fill="#707070" stroke="#000" stroke-miterlimit="10" stroke-width="0.28"/><rect x="207.51" y="206.49" width="49" height="88" transform="translate(-11.73 11.69) rotate(-2.78)" fill="#fff" stroke="#000" stroke-miterlimit="10" stroke-width="0.28"/><path d="M253.86,205.89l4.22,86.9-47.94,2.32-4.22-86.9,47.94-2.32m.95-1-49.94,2.42,4.32,88.9,49.94-2.42-4.32-88.9Z" transform="translate(0.14 0.14)" fill="#707070" stroke="#000" stroke-miterlimit="10" stroke-width="0.28"/><rect x="276.64" y="206.64" width="49" height="88" fill="#fff" stroke="#000" stroke-miterlimit="10" stroke-width="0.28"/><path d="M325,207v87H277V207h48m1-1H276v89h50Z" transform="translate(0.14 0.14)" fill="#707070" stroke="#000" stroke-miterlimit="10" stroke-width="0.28"/><rect x="345.64" y="206.64" width="49" height="88" fill="#fff" stroke="#000" stroke-miterlimit="10" stroke-width="0.28"/><path d="M394,207v87H346V207h48m1-1H345v89h50Z" transform="translate(0.14 0.14)" fill="#707070" stroke="#000" stroke-miterlimit="10" stroke-width="0.28"/><rect x="0.64" y="309.64" width="49" height="88" fill="#fff" stroke="#000" stroke-miterlimit="10" stroke-width="0.28"/><path d="M49,310v87H1V310H49m1-1H0v89H50Z" transform="translate(0.14 0.14)" fill="#707070" stroke="#000" stroke-miterlimit="10" stroke-width="0.28"/><rect x="69.64" y="309.64" width="49" height="88" fill="#fff" stroke="#000" stroke-miterlimit="10" stroke-width="0.28"/><path d="M118,310v87H70V310h48m1-1H69v89h50Z" transform="translate(0.14 0.14)" fill="#707070" stroke="#000" stroke-miterlimit="10" stroke-width="0.28"/><rect x="138.64" y="309.64" width="49" height="88" fill="#fff" stroke="#000" stroke-miterlimit="10" stroke-width="0.28"/><path d="M187,310v87H139V310h48m1-1H138v89h50Z" transform="translate(0.14 0.14)" fill="#707070" stroke="#000" stroke-miterlimit="10" stroke-width="0.28"/><rect x="207.64" y="309.64" width="49" height="88" fill="#fff" stroke="#000" stroke-miterlimit="10" stroke-width="0.28"/><path d="M256,310v87H208V310h48m1-1H207v89h50Z" transform="translate(0.14 0.14)" fill="#707070" stroke="#000" stroke-miterlimit="10" stroke-width="0.28"/><rect x="276.64" y="309.64" width="49" height="88" fill="#fff" stroke="#000" stroke-miterlimit="10" stroke-width="0.28"/><path d="M325,310v87H277V310h48m1-1H276v89h50Z" transform="translate(0.14 0.14)" fill="#707070" stroke="#000" stroke-miterlimit="10" stroke-width="0.28"/><rect x="345.64" y="309.64" width="49" height="88" fill="#fff" stroke="#000" stroke-miterlimit="10" stroke-width="0.28"/><path d="M394,310v87H346V310h48m1-1H345v89h50Z" transform="translate(0.14 0.14)" fill="#707070" stroke="#000" stroke-miterlimit="10" stroke-width="0.28"/><rect x="0.64" y="412.64" width="49" height="88" fill="#fff" stroke="#000" stroke-miterlimit="10" stroke-width="0.28"/><path d="M49,413v87H1V413H49m1-1H0v89H50Z" transform="translate(0.14 0.14)" fill="#707070" stroke="#000" stroke-miterlimit="10" stroke-width="0.28"/><rect x="69.64" y="412.64" width="49" height="88" fill="#fff" stroke="#000" stroke-miterlimit="10" stroke-width="0.28"/><path d="M118,413v87H70V413h48m1-1H69v89h50Z" transform="translate(0.14 0.14)" fill="#707070" stroke="#000" stroke-miterlimit="10" stroke-width="0.28"/><rect x="138.64" y="412.64" width="49" height="88" fill="#fff" stroke="#000" stroke-miterlimit="10" stroke-width="0.28"/><path d="M187,413v87H139V413h48m1-1H138v89h50Z" transform="translate(0.14 0.14)" fill="#707070" stroke="#000" stroke-miterlimit="10" stroke-width="0.28"/><rect x="207.64" y="412.64" width="49" height="88" fill="#fff" stroke="#000" stroke-miterlimit="10" stroke-width="0.28"/><path d="M256,413v87H208V413h48m1-1H207v89h50Z" transform="translate(0.14 0.14)" fill="#707070" stroke="#000" stroke-miterlimit="10" stroke-width="0.28"/><rect x="276.64" y="412.64" width="49" height="88" fill="#fff" stroke="#000" stroke-miterlimit="10" stroke-width="0.28"/><path d="M325,413v87H277V413h48m1-1H276v89h50Z" transform="translate(0.14 0.14)" fill="#707070" stroke="#000" stroke-miterlimit="10" stroke-width="0.28"/><rect x="345.64" y="412.64" width="49" height="88" fill="#fff" stroke="#000" stroke-miterlimit="10" stroke-width="0.28"/><path d="M394,413v87H346V413h48m1-1H345v89h50Z" transform="translate(0.14 0.14)" fill="#707070" stroke="#000" stroke-miterlimit="10" stroke-width="0.28"/></svg>