<svg id="ece55de5-4e81-4653-b85d-923eaedacbee" data-name="Layer 1" xmlns="http://www.w3.org/2000/svg" viewBox="0 0 570 321"><title>test</title><path d="M285,192c-85.79,0-162.71,8.61-214.79,22.2C26.75,225.55.5,240.33.5,256.5.5,292.12,127.88,321,285,321s284.5-28.88,284.5-64.5S442.12,192,285,192Z" fill="#fff"/><path d="M432.5,225.5a136.55,136.55,0,0,0-129.86,94.36c32.14-.44,63.36-2.08,93-4.92,16.84-1.62,33.08-3.62,48.28-5.94,15-2.31,29.18-4.95,42-7.87a358.47,358.47,0,0,0,34.64-9.52,182.57,182.57,0,0,0,22.81-9.21A136.33,136.33,0,0,0,432.5,225.5Z" stroke="#000" stroke-miterlimit="10"/></svg>